<?xml version="1.0" encoding="UTF-8"?>
<!DOCTYPE svg PUBLIC "-//W3C//DTD SVG 1.1//EN" "http://www.w3.org/Graphics/SVG/1.1/DTD/svg11.dtd">
<svg xmlns="http://www.w3.org/2000/svg" version="1.1" width="512px" height="512px" style="shape-rendering:geometricPrecision; text-rendering:geometricPrecision; image-rendering:optimizeQuality; fill-rule:evenodd; clip-rule:evenodd" xmlns:xlink="http://www.w3.org/1999/xlink">
<g><path style="opacity:0.995" fill="#ffd44e" d="M 308.5,-0.5 C 326.5,-0.5 344.5,-0.5 362.5,-0.5C 395.917,1.82028 428.251,9.32028 459.5,22C 477.886,29.4025 493.053,40.9025 505,56.5C 507.489,61.1373 509.656,65.804 511.5,70.5C 511.5,73.8333 511.5,77.1667 511.5,80.5C 510.079,93.1353 504.746,103.969 495.5,113C 489.266,118.08 482.933,122.914 476.5,127.5C 467.23,132.968 457.564,137.635 447.5,141.5C 436.629,144.545 425.963,147.878 415.5,151.5C 404.869,153.352 394.202,155.019 383.5,156.5C 329.689,163.68 277.023,158.846 225.5,142C 206.932,135.39 190.266,125.724 175.5,113C 166.254,103.969 160.921,93.1353 159.5,80.5C 159.212,70.5303 162.045,61.5303 168,53.5C 182.569,36.9634 200.402,25.1301 221.5,18C 249.795,7.9092 278.795,1.74254 308.5,-0.5 Z"/></g>
<g><path style="opacity:0.999" fill="#ffc108" d="M 159.5,80.5 C 160.921,93.1353 166.254,103.969 175.5,113C 190.266,125.724 206.932,135.39 225.5,142C 277.023,158.846 329.689,163.68 383.5,156.5C 383.5,166.833 383.5,177.167 383.5,187.5C 324.93,196.889 267.93,190.722 212.5,169C 197.182,162.431 183.682,153.264 172,141.5C 168.563,136.941 165.396,132.274 162.5,127.5C 161.577,125.233 160.744,122.9 160,120.5C 159.5,107.171 159.333,93.8375 159.5,80.5 Z"/></g>
<g><path style="opacity:0.991" fill="#ffc109" d="M 511.5,80.5 C 511.5,93.8333 511.5,107.167 511.5,120.5C 510.323,122.679 509.323,125.013 508.5,127.5C 501.578,140.09 491.911,150.09 479.5,157.5C 479.5,147.5 479.5,137.5 479.5,127.5C 478.5,127.5 477.5,127.5 476.5,127.5C 482.933,122.914 489.266,118.08 495.5,113C 504.746,103.969 510.079,93.1353 511.5,80.5 Z"/></g>
<g><path style="opacity:0.998" fill="#ffd44e" d="M 162.5,127.5 C 165.396,132.274 168.563,136.941 172,141.5C 183.682,153.264 197.182,162.431 212.5,169C 267.93,190.722 324.93,196.889 383.5,187.5C 394.27,186.483 404.937,184.816 415.5,182.5C 426.645,180.386 437.312,177.053 447.5,172.5C 458.71,168.56 469.377,163.56 479.5,157.5C 491.911,150.09 501.578,140.09 508.5,127.5C 509.323,129.987 510.323,132.321 511.5,134.5C 511.5,137.833 511.5,141.167 511.5,144.5C 510.079,157.135 504.746,167.969 495.5,177C 489.266,182.08 482.933,186.914 476.5,191.5C 467.23,196.968 457.564,201.635 447.5,205.5C 436.629,208.545 425.963,211.878 415.5,215.5C 404.869,217.352 394.202,219.019 383.5,220.5C 329.689,227.68 277.023,222.846 225.5,206C 206.932,199.39 190.266,189.724 175.5,177C 166.254,167.969 160.921,157.135 159.5,144.5C 158.994,138.526 159.994,132.859 162.5,127.5 Z"/></g>
<g><path style="opacity:1" fill="#ffdf81" d="M 476.5,127.5 C 477.5,127.5 478.5,127.5 479.5,127.5C 479.5,137.5 479.5,147.5 479.5,157.5C 469.377,163.56 458.71,168.56 447.5,172.5C 447.5,162.167 447.5,151.833 447.5,141.5C 457.564,137.635 467.23,132.968 476.5,127.5 Z"/></g>
<g><path style="opacity:1" fill="#ffc108" d="M 447.5,141.5 C 447.5,151.833 447.5,162.167 447.5,172.5C 437.312,177.053 426.645,180.386 415.5,182.5C 415.5,172.167 415.5,161.833 415.5,151.5C 425.963,147.878 436.629,144.545 447.5,141.5 Z"/></g>
<g><path style="opacity:1" fill="#ffdf81" d="M 415.5,151.5 C 415.5,161.833 415.5,172.167 415.5,182.5C 404.937,184.816 394.27,186.483 383.5,187.5C 383.5,177.167 383.5,166.833 383.5,156.5C 394.202,155.019 404.869,153.352 415.5,151.5 Z"/></g>
<g><path style="opacity:0.998" fill="#ffc10b" d="M 159.5,144.5 C 160.921,157.135 166.254,167.969 175.5,177C 190.266,189.724 206.932,199.39 225.5,206C 277.023,222.846 329.689,227.68 383.5,220.5C 383.5,230.833 383.5,241.167 383.5,251.5C 379.699,252.639 375.699,253.472 371.5,254C 356.189,255.177 340.856,255.677 325.5,255.5C 297.009,241.706 267.009,232.539 235.5,228C 221.483,226.423 207.483,224.923 193.5,223.5C 180.452,215.452 170.118,204.785 162.5,191.5C 161.577,189.233 160.744,186.9 160,184.5C 159.5,171.171 159.333,157.837 159.5,144.5 Z"/></g>
<g><path style="opacity:0.991" fill="#ffc109" d="M 511.5,144.5 C 511.5,157.833 511.5,171.167 511.5,184.5C 510.323,186.679 509.323,189.013 508.5,191.5C 501.578,204.09 491.911,214.09 479.5,221.5C 479.5,211.5 479.5,201.5 479.5,191.5C 478.5,191.5 477.5,191.5 476.5,191.5C 482.933,186.914 489.266,182.08 495.5,177C 504.746,167.969 510.079,157.135 511.5,144.5 Z"/></g>
<g><path style="opacity:1" fill="#ffdf81" d="M 476.5,191.5 C 477.5,191.5 478.5,191.5 479.5,191.5C 479.5,201.5 479.5,211.5 479.5,221.5C 469.377,227.56 458.71,232.56 447.5,236.5C 447.5,226.167 447.5,215.833 447.5,205.5C 457.564,201.635 467.23,196.968 476.5,191.5 Z"/></g>
<g><path style="opacity:0.981" fill="#ffd44c" d="M 162.5,191.5 C 170.118,204.785 180.452,215.452 193.5,223.5C 182.167,223.5 170.833,223.5 159.5,223.5C 159.334,215.16 159.5,206.827 160,198.5C 160.744,196.1 161.577,193.767 162.5,191.5 Z"/></g>
<g><path style="opacity:0.998" fill="#ffd44f" d="M 508.5,191.5 C 509.323,193.987 510.323,196.321 511.5,198.5C 511.5,201.833 511.5,205.167 511.5,208.5C 510.079,221.135 504.746,231.969 495.5,241C 489.266,246.08 482.933,250.914 476.5,255.5C 467.23,260.968 457.564,265.635 447.5,269.5C 436.629,272.545 425.963,275.878 415.5,279.5C 404.869,281.352 394.202,283.019 383.5,284.5C 377.301,284.652 371.301,285.318 365.5,286.5C 353.906,273.903 340.572,263.57 325.5,255.5C 340.856,255.677 356.189,255.177 371.5,254C 375.699,253.472 379.699,252.639 383.5,251.5C 394.27,250.483 404.937,248.816 415.5,246.5C 426.645,244.386 437.312,241.053 447.5,236.5C 458.71,232.56 469.377,227.56 479.5,221.5C 491.911,214.09 501.578,204.09 508.5,191.5 Z"/></g>
<g><path style="opacity:1" fill="#ffc108" d="M 447.5,205.5 C 447.5,215.833 447.5,226.167 447.5,236.5C 437.312,241.053 426.645,244.386 415.5,246.5C 415.5,236.167 415.5,225.833 415.5,215.5C 425.963,211.878 436.629,208.545 447.5,205.5 Z"/></g>
<g><path style="opacity:1" fill="#ffdf81" d="M 415.5,215.5 C 415.5,225.833 415.5,236.167 415.5,246.5C 404.937,248.816 394.27,250.483 383.5,251.5C 383.5,241.167 383.5,230.833 383.5,220.5C 394.202,219.019 404.869,217.352 415.5,215.5 Z"/></g>
<g><path style="opacity:0.991" fill="#ffc109" d="M 511.5,208.5 C 511.5,221.833 511.5,235.167 511.5,248.5C 510.323,250.679 509.323,253.013 508.5,255.5C 501.578,268.09 491.911,278.09 479.5,285.5C 479.5,275.5 479.5,265.5 479.5,255.5C 478.5,255.5 477.5,255.5 476.5,255.5C 482.933,250.914 489.266,246.08 495.5,241C 504.746,231.969 510.079,221.135 511.5,208.5 Z"/></g>
<g><path style="opacity:0.997" fill="#fffefd" d="M 159.5,223.5 C 170.833,223.5 182.167,223.5 193.5,223.5C 207.483,224.923 221.483,226.423 235.5,228C 267.009,232.539 297.009,241.706 325.5,255.5C 340.572,263.57 353.906,273.903 365.5,286.5C 372.421,295.677 377.755,305.677 381.5,316.5C 383.236,327.079 383.902,337.746 383.5,348.5C 383.5,358.833 383.5,369.167 383.5,379.5C 383.5,390.5 383.5,401.5 383.5,412.5C 383.433,423.177 383.099,433.844 382.5,444.5C 382.461,445.583 382.127,446.583 381.5,447.5C 369.907,449.359 358.24,450.359 346.5,450.5C 348.488,446.371 349.988,442.038 351,437.5C 351.5,425.171 351.667,412.838 351.5,400.5C 350.93,394.416 349.93,388.416 348.5,382.5C 349.428,379.546 350.261,376.546 351,373.5C 351.5,361.171 351.667,348.838 351.5,336.5C 351.11,324.059 346.61,313.392 338,304.5C 318.455,286.473 295.622,274.307 269.5,268C 233.833,258.388 197.5,254.221 160.5,255.5C 158.143,248.745 157.143,241.745 157.5,234.5C 157.511,230.435 158.178,226.768 159.5,223.5 Z"/></g>
<g><path style="opacity:0.997" fill="#ffd54f" d="M 160.5,255.5 C 197.5,254.221 233.833,258.388 269.5,268C 295.622,274.307 318.455,286.473 338,304.5C 346.61,313.392 351.11,324.059 351.5,336.5C 350.079,349.135 344.746,359.969 335.5,369C 329.266,374.08 322.933,378.914 316.5,383.5C 307.23,388.968 297.564,393.635 287.5,397.5C 276.629,400.545 265.963,403.878 255.5,407.5C 244.869,409.352 234.202,411.019 223.5,412.5C 169.673,419.679 117.006,414.846 65.5,398C 46.9324,391.39 30.2658,381.724 15.5,369C 6.25415,359.969 0.920812,349.135 -0.5,336.5C -0.5,333.167 -0.5,329.833 -0.5,326.5C 5.92557,309.86 16.9256,297.026 32.5,288C 64.8754,270.236 99.5421,259.903 136.5,257C 144.483,256.168 152.483,255.668 160.5,255.5 Z"/></g>
<g><path style="opacity:1" fill="#ffdf81" d="M 476.5,255.5 C 477.5,255.5 478.5,255.5 479.5,255.5C 479.5,265.5 479.5,275.5 479.5,285.5C 469.377,291.56 458.71,296.56 447.5,300.5C 447.5,290.167 447.5,279.833 447.5,269.5C 457.564,265.635 467.23,260.968 476.5,255.5 Z"/></g>
<g><path style="opacity:0.998" fill="#ffd44e" d="M 508.5,255.5 C 509.323,257.987 510.323,260.321 511.5,262.5C 511.5,265.833 511.5,269.167 511.5,272.5C 510.079,285.135 504.746,295.969 495.5,305C 489.266,310.08 482.933,314.914 476.5,319.5C 467.23,324.968 457.564,329.635 447.5,333.5C 436.629,336.545 425.963,339.878 415.5,343.5C 404.869,345.352 394.202,347.019 383.5,348.5C 383.902,337.746 383.236,327.079 381.5,316.5C 382.492,316.672 383.158,316.338 383.5,315.5C 394.27,314.483 404.937,312.816 415.5,310.5C 426.645,308.386 437.312,305.053 447.5,300.5C 458.71,296.56 469.377,291.56 479.5,285.5C 491.911,278.09 501.578,268.09 508.5,255.5 Z"/></g>
<g><path style="opacity:1" fill="#ffc108" d="M 447.5,269.5 C 447.5,279.833 447.5,290.167 447.5,300.5C 437.312,305.053 426.645,308.386 415.5,310.5C 415.5,300.167 415.5,289.833 415.5,279.5C 425.963,275.878 436.629,272.545 447.5,269.5 Z"/></g>
<g><path style="opacity:1" fill="#ffdf81" d="M 415.5,279.5 C 415.5,289.833 415.5,300.167 415.5,310.5C 404.937,312.816 394.27,314.483 383.5,315.5C 383.5,305.167 383.5,294.833 383.5,284.5C 394.202,283.019 404.869,281.352 415.5,279.5 Z"/></g>
<g><path style="opacity:0.991" fill="#ffc109" d="M 511.5,272.5 C 511.5,285.833 511.5,299.167 511.5,312.5C 510.323,314.679 509.323,317.013 508.5,319.5C 501.578,332.09 491.911,342.09 479.5,349.5C 479.5,339.5 479.5,329.5 479.5,319.5C 478.5,319.5 477.5,319.5 476.5,319.5C 482.933,314.914 489.266,310.08 495.5,305C 504.746,295.969 510.079,285.135 511.5,272.5 Z"/></g>
<g><path style="opacity:1" fill="#ffc211" d="M 383.5,284.5 C 383.5,294.833 383.5,305.167 383.5,315.5C 383.158,316.338 382.492,316.672 381.5,316.5C 377.755,305.677 372.421,295.677 365.5,286.5C 371.301,285.318 377.301,284.652 383.5,284.5 Z"/></g>
<g><path style="opacity:1" fill="#ffdf81" d="M 476.5,319.5 C 477.5,319.5 478.5,319.5 479.5,319.5C 479.5,329.5 479.5,339.5 479.5,349.5C 469.377,355.56 458.71,360.56 447.5,364.5C 447.5,354.167 447.5,343.833 447.5,333.5C 457.564,329.635 467.23,324.968 476.5,319.5 Z"/></g>
<g><path style="opacity:0.998" fill="#ffd44e" d="M 508.5,319.5 C 509.323,321.987 510.323,324.321 511.5,326.5C 511.5,329.833 511.5,333.167 511.5,336.5C 510.079,349.135 504.746,359.969 495.5,369C 489.266,374.08 482.933,378.914 476.5,383.5C 467.23,388.968 457.564,393.635 447.5,397.5C 436.629,400.545 425.963,403.878 415.5,407.5C 404.869,409.352 394.202,411.019 383.5,412.5C 383.5,401.5 383.5,390.5 383.5,379.5C 394.27,378.483 404.937,376.816 415.5,374.5C 426.645,372.386 437.312,369.053 447.5,364.5C 458.71,360.56 469.377,355.56 479.5,349.5C 491.911,342.09 501.578,332.09 508.5,319.5 Z"/></g>
<g><path style="opacity:1" fill="#ffc108" d="M 447.5,333.5 C 447.5,343.833 447.5,354.167 447.5,364.5C 437.312,369.053 426.645,372.386 415.5,374.5C 415.5,364.167 415.5,353.833 415.5,343.5C 425.963,339.878 436.629,336.545 447.5,333.5 Z"/></g>
<g><path style="opacity:1" fill="#ffdf81" d="M 415.5,343.5 C 415.5,353.833 415.5,364.167 415.5,374.5C 404.937,376.816 394.27,378.483 383.5,379.5C 383.5,369.167 383.5,358.833 383.5,348.5C 394.202,347.019 404.869,345.352 415.5,343.5 Z"/></g>
<g><path style="opacity:0.999" fill="#ffc108" d="M -0.5,336.5 C 0.920812,349.135 6.25415,359.969 15.5,369C 30.2658,381.724 46.9324,391.39 65.5,398C 117.006,414.846 169.673,419.679 223.5,412.5C 223.5,422.833 223.5,433.167 223.5,443.5C 164.93,452.889 107.93,446.722 52.5,425C 37.182,418.431 23.682,409.264 12,397.5C 8.56292,392.941 5.39625,388.274 2.5,383.5C 1.67722,381.013 0.67722,378.679 -0.5,376.5C -0.5,363.167 -0.5,349.833 -0.5,336.5 Z"/></g>
<g><path style="opacity:1" fill="#ffc10b" d="M 351.5,336.5 C 351.667,348.838 351.5,361.171 351,373.5C 350.261,376.546 349.428,379.546 348.5,382.5C 341.992,395.678 332.326,406.011 319.5,413.5C 319.5,403.5 319.5,393.5 319.5,383.5C 318.5,383.5 317.5,383.5 316.5,383.5C 322.933,378.914 329.266,374.08 335.5,369C 344.746,359.969 350.079,349.135 351.5,336.5 Z"/></g>
<g><path style="opacity:0.965" fill="#ffc108" d="M 511.5,336.5 C 511.5,349.833 511.5,363.167 511.5,376.5C 505.727,393.035 495.06,405.368 479.5,413.5C 479.5,403.5 479.5,393.5 479.5,383.5C 478.5,383.5 477.5,383.5 476.5,383.5C 482.933,378.914 489.266,374.08 495.5,369C 504.746,359.969 510.079,349.135 511.5,336.5 Z"/></g>
<g><path style="opacity:1" fill="#ffdf7f" d="M 476.5,383.5 C 477.5,383.5 478.5,383.5 479.5,383.5C 479.5,393.5 479.5,403.5 479.5,413.5C 470.365,420.068 460.365,425.068 449.5,428.5C 447.525,418.554 446.858,408.221 447.5,397.5C 457.564,393.635 467.23,388.968 476.5,383.5 Z"/></g>
<g><path style="opacity:0.999" fill="#ffd44e" d="M 348.5,382.5 C 349.93,388.416 350.93,394.416 351.5,400.5C 350.079,413.135 344.746,423.969 335.5,433C 329.266,438.08 322.933,442.914 316.5,447.5C 307.23,452.968 297.564,457.635 287.5,461.5C 276.629,464.545 265.963,467.878 255.5,471.5C 244.869,473.352 234.202,475.019 223.5,476.5C 169.689,483.68 117.023,478.846 65.5,462C 46.9324,455.39 30.2658,445.724 15.5,433C 6.25415,423.969 0.920812,413.135 -0.5,400.5C -0.5,397.167 -0.5,393.833 -0.5,390.5C 0.67722,388.321 1.67722,385.987 2.5,383.5C 5.39625,388.274 8.56292,392.941 12,397.5C 23.682,409.264 37.182,418.431 52.5,425C 107.93,446.722 164.93,452.889 223.5,443.5C 234.27,442.483 244.937,440.816 255.5,438.5C 266.645,436.386 277.312,433.053 287.5,428.5C 298.71,424.56 309.377,419.56 319.5,413.5C 332.326,406.011 341.992,395.678 348.5,382.5 Z"/></g>
<g><path style="opacity:1" fill="#ffdf81" d="M 316.5,383.5 C 317.5,383.5 318.5,383.5 319.5,383.5C 319.5,393.5 319.5,403.5 319.5,413.5C 309.377,419.56 298.71,424.56 287.5,428.5C 287.5,418.167 287.5,407.833 287.5,397.5C 297.564,393.635 307.23,388.968 316.5,383.5 Z"/></g>
<g><path style="opacity:1" fill="#ffc108" d="M 287.5,397.5 C 287.5,407.833 287.5,418.167 287.5,428.5C 277.312,433.053 266.645,436.386 255.5,438.5C 255.5,428.167 255.5,417.833 255.5,407.5C 265.963,403.878 276.629,400.545 287.5,397.5 Z"/></g>
<g><path style="opacity:0.98" fill="#ffc108" d="M 447.5,397.5 C 446.858,408.221 447.525,418.554 449.5,428.5C 438.547,433.077 427.214,436.744 415.5,439.5C 415.5,428.833 415.5,418.167 415.5,407.5C 425.963,403.878 436.629,400.545 447.5,397.5 Z"/></g>
<g><path style="opacity:1" fill="#ffdf81" d="M 255.5,407.5 C 255.5,417.833 255.5,428.167 255.5,438.5C 244.937,440.816 234.27,442.483 223.5,443.5C 223.5,433.167 223.5,422.833 223.5,412.5C 234.202,411.019 244.869,409.352 255.5,407.5 Z"/></g>
<g><path style="opacity:1" fill="#ffdf7f" d="M 415.5,407.5 C 415.5,418.167 415.5,428.833 415.5,439.5C 404.616,441.925 393.616,443.592 382.5,444.5C 383.099,433.844 383.433,423.177 383.5,412.5C 394.202,411.019 404.869,409.352 415.5,407.5 Z"/></g>
<g><path style="opacity:0.981" fill="#ffc107" d="M -0.5,400.5 C 0.920812,413.135 6.25415,423.969 15.5,433C 30.2658,445.724 46.9324,455.39 65.5,462C 117.023,478.846 169.689,483.68 223.5,476.5C 223.5,487.167 223.5,497.833 223.5,508.5C 216.424,509.667 209.424,510.667 202.5,511.5C 184.5,511.5 166.5,511.5 148.5,511.5C 115.083,509.18 82.7495,501.68 51.5,489C 33.1141,481.597 17.9474,470.097 6,454.5C 3.51112,449.863 1.34445,445.196 -0.5,440.5C -0.5,427.167 -0.5,413.833 -0.5,400.5 Z"/></g>
<g><path style="opacity:0.975" fill="#ffc10b" d="M 351.5,400.5 C 351.667,412.838 351.5,425.171 351,437.5C 349.988,442.038 348.488,446.371 346.5,450.5C 340.403,462.386 331.403,471.386 319.5,477.5C 319.5,467.5 319.5,457.5 319.5,447.5C 318.5,447.5 317.5,447.5 316.5,447.5C 322.933,442.914 329.266,438.08 335.5,433C 344.746,423.969 350.079,413.135 351.5,400.5 Z"/></g>
<g><path style="opacity:1" fill="#ffdf7f" d="M 316.5,447.5 C 317.5,447.5 318.5,447.5 319.5,447.5C 319.5,457.5 319.5,467.5 319.5,477.5C 310.365,484.068 300.365,489.068 289.5,492.5C 287.525,482.554 286.858,472.221 287.5,461.5C 297.564,457.635 307.23,452.968 316.5,447.5 Z"/></g>
<g><path style="opacity:0.98" fill="#ffc108" d="M 287.5,461.5 C 286.858,472.221 287.525,482.554 289.5,492.5C 278.547,497.077 267.214,500.744 255.5,503.5C 255.5,492.833 255.5,482.167 255.5,471.5C 265.963,467.878 276.629,464.545 287.5,461.5 Z"/></g>
<g><path style="opacity:1" fill="#ffdf80" d="M 255.5,471.5 C 255.5,482.167 255.5,492.833 255.5,503.5C 244.937,505.816 234.27,507.483 223.5,508.5C 223.5,497.833 223.5,487.167 223.5,476.5C 234.202,475.019 244.869,473.352 255.5,471.5 Z"/></g>
</svg>
