<?xml version="1.0" encoding="UTF-8"?>
<!DOCTYPE svg PUBLIC "-//W3C//DTD SVG 1.1//EN" "http://www.w3.org/Graphics/SVG/1.1/DTD/svg11.dtd">
<svg xmlns="http://www.w3.org/2000/svg" version="1.1" width="512px" height="512px" style="shape-rendering:geometricPrecision; text-rendering:geometricPrecision; image-rendering:optimizeQuality; fill-rule:evenodd; clip-rule:evenodd" xmlns:xlink="http://www.w3.org/1999/xlink">
<g><path style="opacity:0.994" fill="#00ae64" d="M 8.5,-0.5 C 39.1667,-0.5 69.8333,-0.5 100.5,-0.5C 109.454,4.84176 111.954,12.5084 108,22.5C 106.235,25.473 103.735,27.6396 100.5,29C 76.8357,29.5 53.169,29.6666 29.5,29.5C 29.6666,53.169 29.5,76.8357 29,100.5C 23.8483,109.475 16.3483,111.975 6.5,108C 3.58828,105.985 1.25495,103.485 -0.5,100.5C -0.5,69.8333 -0.5,39.1667 -0.5,8.5C 0.803551,7.01307 1.97022,5.3464 3,3.5C 5.01533,2.30342 6.84866,0.970083 8.5,-0.5 Z"/></g>
<g><path style="opacity:0.994" fill="#00ae64" d="M 410.5,-0.5 C 441.167,-0.5 471.833,-0.5 502.5,-0.5C 503.987,0.803551 505.654,1.97022 507.5,3C 508.697,5.01533 510.03,6.84866 511.5,8.5C 511.5,39.1667 511.5,69.8333 511.5,100.5C 506.158,109.454 498.492,111.954 488.5,108C 485.527,106.235 483.36,103.735 482,100.5C 481.5,76.8357 481.333,53.169 481.5,29.5C 457.831,29.6666 434.164,29.5 410.5,29C 401.525,23.8483 399.025,16.3483 403,6.5C 405.015,3.58828 407.515,1.25495 410.5,-0.5 Z"/></g>
<g><path style="opacity:0.984" fill="#00af64" d="M 237.5,50.5 C 292.821,46.2108 339.654,63.8775 378,103.5C 410.755,140.768 424.422,184.101 419,233.5C 415.983,238.592 411.483,240.926 405.5,240.5C 399.517,240.926 395.017,238.592 392,233.5C 394.014,182.379 375.514,140.545 336.5,108C 282.534,71.3644 228.534,71.3644 174.5,108C 144.737,131.347 127.237,161.847 122,199.5C 120.778,236.818 120.111,274.152 120,311.5C 114.848,320.475 107.348,322.975 97.5,319C 94.527,317.235 92.3604,314.735 91,311.5C 90.3333,273.5 90.3333,235.5 91,197.5C 100.246,132.272 135.079,86.7719 195.5,61C 209.269,56.0194 223.269,52.5194 237.5,50.5 Z"/></g>
<g><path style="opacity:0.985" fill="#00af64" d="M 240.5,110.5 C 286.636,106.653 322.136,123.987 347,162.5C 358.651,185.061 363.651,209.061 362,234.5C 366.228,251.062 376.395,262.229 392.5,268C 398.789,269.245 405.122,270.245 411.5,271C 420.475,276.152 422.975,283.652 419,293.5C 417.235,296.473 414.735,298.64 411.5,300C 372.082,301.579 345.916,283.745 333,246.5C 332.206,243.529 331.539,240.529 331,237.5C 330.636,226.148 329.969,214.815 329,203.5C 321.833,169.667 301.333,149.167 267.5,142C 235.409,138.464 210.243,149.964 192,176.5C 184.753,188.487 181.086,201.487 181,215.5C 180.667,249.5 180.333,283.5 180,317.5C 175.143,344.377 160.31,363.544 135.5,375C 123.194,380.384 110.527,381.718 97.5,379C 90.8561,374.174 88.6895,367.674 91,359.5C 92.5,355.333 95.3333,352.5 99.5,351C 129.388,350.104 146.222,334.937 150,305.5C 150.333,270.5 150.667,235.5 151,200.5C 161.013,150.654 190.847,120.654 240.5,110.5 Z"/></g>
<g><path style="opacity:0.982" fill="#00af64" d="M 245.5,170.5 C 268.793,167.396 285.959,176.062 297,196.5C 298.286,199.405 299.286,202.405 300,205.5C 296.568,244.894 309.068,278.06 337.5,305C 358.989,322.387 383.656,331.054 411.5,331C 419.915,335.348 422.748,342.181 420,351.5C 418.5,355.667 415.667,358.5 411.5,360C 350.851,360.768 307.351,333.934 281,279.5C 272.584,259.004 268.917,237.67 270,215.5C 268.284,204.218 261.784,199.718 250.5,202C 243.153,205.853 239.819,212.02 240.5,220.5C 243.56,299.832 281.893,353.999 355.5,383C 360.722,389.036 361.889,395.869 359,403.5C 354.291,409.77 348.124,411.936 340.5,410C 268.398,381.895 225.565,329.729 212,253.5C 210.468,237.532 210.134,221.532 211,205.5C 216.016,187.318 227.516,175.652 245.5,170.5 Z"/></g>
<g><path style="opacity:0.979" fill="#00af64" d="M 207.5,348.5 C 220.299,349.129 226.132,355.796 225,368.5C 197.791,417.533 155.958,441.367 99.5,440C 91.0851,435.652 88.2517,428.819 91,419.5C 92.5,415.333 95.3333,412.5 99.5,411C 142.512,410.425 175.012,391.925 197,355.5C 199.701,351.748 203.201,349.415 207.5,348.5 Z"/></g>
<g><path style="opacity:0.98" fill="#00af64" d="M 247.5,394.5 C 251.605,394.234 255.605,394.734 259.5,396C 277.826,410.84 297.826,423.174 319.5,433C 326.011,439.251 327.177,446.418 323,454.5C 318.032,460.115 311.865,461.948 304.5,460C 286.807,452.409 270.307,442.909 255,431.5C 246.464,441.703 236.964,450.87 226.5,459C 208.719,463.215 201.219,456.381 204,438.5C 213.306,429.194 222.64,419.86 232,410.5C 234.723,407.443 237.056,404.11 239,400.5C 241.322,397.605 244.155,395.605 247.5,394.5 Z"/></g>
<g><path style="opacity:0.994" fill="#00ae64" d="M 100.5,511.5 C 69.8333,511.5 39.1667,511.5 8.5,511.5C 7.01307,510.196 5.3464,509.03 3.5,508C 2.30342,505.985 0.970083,504.151 -0.5,502.5C -0.5,471.833 -0.5,441.167 -0.5,410.5C 4.84176,401.546 12.5084,399.046 22.5,403C 25.473,404.765 27.6396,407.265 29,410.5C 29.5,434.164 29.6666,457.831 29.5,481.5C 53.169,481.333 76.8357,481.5 100.5,482C 109.475,487.152 111.975,494.652 108,504.5C 105.985,507.412 103.485,509.745 100.5,511.5 Z"/></g>
<g><path style="opacity:0.994" fill="#00ae64" d="M 511.5,410.5 C 511.5,441.167 511.5,471.833 511.5,502.5C 510.196,503.987 509.03,505.654 508,507.5C 505.985,508.697 504.151,510.03 502.5,511.5C 471.833,511.5 441.167,511.5 410.5,511.5C 401.546,506.158 399.046,498.492 403,488.5C 404.765,485.527 407.265,483.36 410.5,482C 434.164,481.5 457.831,481.333 481.5,481.5C 481.333,457.831 481.5,434.164 482,410.5C 487.152,401.525 494.652,399.025 504.5,403C 507.412,405.015 509.745,407.515 511.5,410.5 Z"/></g>
</svg>
