<?xml version="1.0" encoding="UTF-8"?>
<!DOCTYPE svg PUBLIC "-//W3C//DTD SVG 1.1//EN" "http://www.w3.org/Graphics/SVG/1.1/DTD/svg11.dtd">
<svg xmlns="http://www.w3.org/2000/svg" version="1.1" width="512px" height="512px" style="shape-rendering:geometricPrecision; text-rendering:geometricPrecision; image-rendering:optimizeQuality; fill-rule:evenodd; clip-rule:evenodd" xmlns:xlink="http://www.w3.org/1999/xlink">
<g><path style="opacity:0.996" fill="#ffd055" d="M 262.5,29.5 C 262.838,34.5411 264.505,38.8744 267.5,42.5C 275.769,44.4698 284.435,45.1364 293.5,44.5C 294.848,45.6006 296.348,46.6006 298,47.5C 298.399,47.2716 298.565,46.9382 298.5,46.5C 299.167,46.5 299.5,46.8333 299.5,47.5C 300.455,49.7457 301.122,52.079 301.5,54.5C 301.737,55.791 301.404,56.791 300.5,57.5C 300.565,57.0618 300.399,56.7284 300,56.5C 296.62,58.717 293.787,61.3837 291.5,64.5C 289.777,66.2181 287.777,67.5514 285.5,68.5C 285.565,68.0618 285.399,67.7284 285,67.5C 282.665,69.4002 280.498,71.4002 278.5,73.5C 277.167,74.5 277.167,75.5 278.5,76.5C 277.115,77.9473 277.448,78.9473 279.5,79.5C 282.029,87.0887 284.362,94.7554 286.5,102.5C 285.782,106.552 283.448,108.885 279.5,109.5C 276.645,108.883 273.978,107.883 271.5,106.5C 267.268,104.6 263.601,101.933 260.5,98.5C 259.758,96.6503 258.758,95.9836 257.5,96.5C 255.606,95.9524 253.94,94.9524 252.5,93.5C 246.311,98.0904 239.978,102.424 233.5,106.5C 233.565,106.062 233.399,105.728 233,105.5C 231.188,106.977 229.355,108.31 227.5,109.5C 225.662,110.678 223.995,110.345 222.5,108.5C 220.884,106.262 219.551,103.929 218.5,101.5C 218.5,100.833 218.5,100.167 218.5,99.5C 220.552,98.9473 220.885,97.9473 219.5,96.5C 220.167,94.8333 220.833,93.1667 221.5,91.5C 223.043,90.2642 224.043,88.5976 224.5,86.5C 224.376,85.8933 224.043,85.56 223.5,85.5C 224.129,82.6027 225.129,79.936 226.5,77.5C 227.928,75.2051 227.428,73.2051 225,71.5C 224.601,71.7284 224.435,72.0618 224.5,72.5C 218.891,68.6868 213.224,64.8535 207.5,61C 205.959,59.6288 204.625,58.1288 203.5,56.5C 203.938,56.5654 204.272,56.3988 204.5,56C 203.934,55.0053 203.267,54.172 202.5,53.5C 202.5,52.5 202.5,51.5 202.5,50.5C 204.887,48.1111 207.554,46.1111 210.5,44.5C 213.5,44.5 216.5,44.5 219.5,44.5C 225.319,45.6525 231.319,45.8192 237.5,45C 238.791,43.7083 238.791,42.5417 237.5,41.5C 239.232,37.3034 240.565,32.9701 241.5,28.5C 244.16,25.887 245.493,22.5537 245.5,18.5C 248.622,14.2128 252.622,13.3794 257.5,16C 260.152,20.0909 261.819,24.5909 262.5,29.5 Z M 252.5,50.5 C 254.222,59.209 259.556,62.709 268.5,61C 267.269,62.4048 265.936,63.5714 264.5,64.5C 260.518,67.3574 259.518,71.024 261.5,75.5C 261.815,77.2259 261.981,78.8925 262,80.5C 256.159,74.2494 249.993,73.9161 243.5,79.5C 243.167,79.1667 242.833,78.8333 242.5,78.5C 246.212,70.2966 243.879,64.6299 235.5,61.5C 238.977,60.6773 242.644,60.1773 246.5,60C 249.218,56.5661 251.218,53.3994 252.5,50.5 Z"/></g>
<g><path style="opacity:0.945" fill="#ff8092" d="M 245.5,18.5 C 245.493,22.5537 244.16,25.887 241.5,28.5C 242.657,25.016 243.99,21.6827 245.5,18.5 Z"/></g>
<g><path style="opacity:0.392" fill="#ff7187" d="M 262.5,29.5 C 264.343,33.6844 266.01,38.0178 267.5,42.5C 264.505,38.8744 262.838,34.5411 262.5,29.5 Z"/></g>
<g><path style="opacity:0.133" fill="#ffb5c8" d="M 237.5,41.5 C 238.791,42.5417 238.791,43.7083 237.5,45C 231.319,45.8192 225.319,45.6525 219.5,44.5C 225.176,44.6661 230.843,44.4994 236.5,44C 237.252,43.3292 237.586,42.4959 237.5,41.5 Z"/></g>
<g><path style="opacity:0.612" fill="#ff65b0" d="M 293.5,44.5 C 295.553,44.4021 297.22,45.0687 298.5,46.5C 298.565,46.9382 298.399,47.2716 298,47.5C 296.348,46.6006 294.848,45.6006 293.5,44.5 Z"/></g>
<g><path style="opacity:0.808" fill="#ff8ba1" d="M 210.5,44.5 C 207.554,46.1111 204.887,48.1111 202.5,50.5C 203.719,46.6195 206.385,44.6195 210.5,44.5 Z"/></g>
<g><path style="opacity:0.078" fill="#ff7297" d="M 299.5,47.5 C 302.218,49.3817 302.885,51.7151 301.5,54.5C 301.122,52.079 300.455,49.7457 299.5,47.5 Z"/></g>
<g><path style="opacity:0.894" fill="#ff6fac" d="M 202.5,53.5 C 203.267,54.172 203.934,55.0053 204.5,56C 204.272,56.3988 203.938,56.5654 203.5,56.5C 202.596,55.791 202.263,54.791 202.5,53.5 Z"/></g>
<g><path style="opacity:0.384" fill="#ff5e94" d="M 252.5,50.5 C 251.218,53.3994 249.218,56.5661 246.5,60C 242.644,60.1773 238.977,60.6773 235.5,61.5C 235.565,61.9382 235.399,62.2716 235,62.5C 234.626,61.5838 234.126,60.7504 233.5,60C 243.635,62.5122 249.468,58.6788 251,48.5C 251.667,47.1667 252.333,47.1667 253,48.5C 253.692,49.4368 253.525,50.1034 252.5,50.5 Z"/></g>
<g><path style="opacity:0.224" fill="#ff85ad" d="M 300.5,57.5 C 297.81,60.1846 294.81,62.5179 291.5,64.5C 293.787,61.3837 296.62,58.717 300,56.5C 300.399,56.7284 300.565,57.0618 300.5,57.5 Z"/></g>
<g><path style="opacity:0.639" fill="#ff8188" d="M 264.5,64.5 C 264.315,66.1958 263.481,67.5291 262,68.5C 261.731,71.1266 261.564,73.4599 261.5,75.5C 259.518,71.024 260.518,67.3574 264.5,64.5 Z"/></g>
<g><path style="opacity:0.173" fill="#ff8790" d="M 285.5,68.5 C 283.704,70.9 281.37,72.5667 278.5,73.5C 280.498,71.4002 282.665,69.4002 285,67.5C 285.399,67.7284 285.565,68.0618 285.5,68.5 Z"/></g>
<g><path style="opacity:0.639" fill="#ff7c9b" d="M 226.5,77.5 C 226.608,75.4862 225.942,73.8195 224.5,72.5C 224.435,72.0618 224.601,71.7284 225,71.5C 227.428,73.2051 227.928,75.2051 226.5,77.5 Z"/></g>
<g><path style="opacity:0.051" fill="#ff8bd7" d="M 278.5,76.5 C 278.557,77.609 278.89,78.609 279.5,79.5C 277.448,78.9473 277.115,77.9473 278.5,76.5 Z"/></g>
<g><path style="opacity:0.757" fill="#ff6990" d="M 223.5,85.5 C 224.043,85.56 224.376,85.8933 224.5,86.5C 224.043,88.5976 223.043,90.2642 221.5,91.5C 221.971,89.4214 222.637,87.4214 223.5,85.5 Z"/></g>
<g><path style="opacity:0.999" fill="#ffcf56" d="M 391.5,101.5 C 390.651,103.51 391.318,105.177 393.5,106.5C 394.167,106.5 394.5,106.833 394.5,107.5C 394.461,110.089 395.461,112.089 397.5,113.5C 398.785,115.062 400.285,116.396 402,117.5C 410.523,115.562 419.023,113.562 427.5,111.5C 429.026,111.994 430.359,112.661 431.5,113.5C 432.846,115.537 434.18,117.537 435.5,119.5C 435.5,119.833 435.5,120.167 435.5,120.5C 433.992,122.181 432.992,124.181 432.5,126.5C 430.471,128.858 428.471,131.192 426.5,133.5C 424.114,134.373 422.114,135.873 420.5,138C 420.728,138.399 421.062,138.565 421.5,138.5C 419.666,140.505 417.999,142.672 416.5,145C 418.052,147.943 419.719,150.777 421.5,153.5C 420.651,155.51 421.318,157.177 423.5,158.5C 424.906,158.973 425.573,159.973 425.5,161.5C 426.352,164.223 427.519,166.89 429,169.5C 429.399,169.272 429.565,168.938 429.5,168.5C 431.554,175.353 428.887,179.019 421.5,179.5C 420.462,177.481 419.128,177.147 417.5,178.5C 410.28,174.979 402.947,171.646 395.5,168.5C 389.011,175.157 382.678,181.99 376.5,189C 369.749,191.624 365.416,189.458 363.5,182.5C 364.339,181.359 365.006,180.026 365.5,178.5C 365.376,177.893 365.043,177.56 364.5,177.5C 364.669,172.819 365.002,168.152 365.5,163.5C 366.249,162.469 366.915,161.302 367.5,160C 367.272,159.601 366.938,159.435 366.5,159.5C 366.5,159.167 366.5,158.833 366.5,158.5C 367.598,157.399 367.765,156.066 367,154.5C 366.31,153.262 365.81,153.262 365.5,154.5C 364.508,154.672 363.842,154.338 363.5,153.5C 361.392,151.941 359.059,150.608 356.5,149.5C 355.893,149.624 355.56,149.957 355.5,150.5C 353.085,149.695 350.751,148.695 348.5,147.5C 348.179,145.952 347.179,145.285 345.5,145.5C 341.808,145.062 339.308,143.062 338,139.5C 337.412,136.861 337.912,134.527 339.5,132.5C 340.758,133.016 341.758,132.35 342.5,130.5C 351.273,128.009 360.273,126.009 369.5,124.5C 370.476,114.067 371.976,103.733 374,93.5C 377.297,90.8281 380.797,90.3281 384.5,92C 387.441,94.7134 389.774,97.8801 391.5,101.5 Z M 386.5,125.5 C 387.539,128.921 389.539,131.588 392.5,133.5C 396.349,134.372 400.349,134.539 404.5,134C 397.357,139.666 396.69,146 402.5,153C 400.402,152.968 398.402,152.301 396.5,151C 391.438,149.393 387.772,150.893 385.5,155.5C 384.5,156.167 383.5,156.833 382.5,157.5C 384.242,152.89 383.742,148.556 381,144.5C 378.214,142.858 375.381,141.358 372.5,140C 375.457,139.721 378.123,138.887 380.5,137.5C 383.297,137.033 384.631,135.367 384.5,132.5C 385.07,129.562 385.737,127.228 386.5,125.5 Z"/></g>
<g><path style="opacity:0.216" fill="#ff3576" d="M 260.5,98.5 C 258.973,98.573 257.973,97.9063 257.5,96.5C 258.758,95.9836 259.758,96.6503 260.5,98.5 Z"/></g>
<g><path style="opacity:1" fill="#ffce56" d="M 116.5,177.5 C 116.938,177.565 117.272,177.399 117.5,177C 116.167,175.667 114.833,174.333 113.5,173C 112.002,172.415 111.002,172.915 110.5,174.5C 110.167,174.5 109.833,174.5 109.5,174.5C 105.418,175.376 101.751,177.043 98.5,179.5C 94.6083,182.252 90.275,184.252 85.5,185.5C 78.6986,184.236 76.1986,180.236 78,173.5C 79.8588,170.436 81.6921,167.436 83.5,164.5C 84.3764,164.631 85.0431,164.298 85.5,163.5C 86.5498,162.571 86.5498,161.905 85.5,161.5C 87.5,157.5 89.5,153.5 91.5,149.5C 90.5,146.5 88.5,144.5 85.5,143.5C 82.8621,140.526 80.1954,137.526 77.5,134.5C 76.2141,131.883 74.5475,129.55 72.5,127.5C 71.8159,121.515 74.4826,118.182 80.5,117.5C 83.0804,117.724 85.4138,118.391 87.5,119.5C 88.9972,120.306 90.6639,120.972 92.5,121.5C 93.1067,121.376 93.44,121.043 93.5,120.5C 98.1079,121.111 102.608,122.111 107,123.5C 111.526,115.77 116.026,108.104 120.5,100.5C 121.239,100.631 121.906,100.464 122.5,100C 123.738,99.31 123.738,98.81 122.5,98.5C 126.488,95.685 130.321,96.0183 134,99.5C 135.695,109.437 137.195,119.437 138.5,129.5C 147.813,131.729 157.146,133.896 166.5,136C 170.5,140.667 170.5,145.333 166.5,150C 158.383,153.225 150.383,156.725 142.5,160.5C 142.166,169.679 142.832,178.845 144.5,188C 142.289,195.385 137.623,197.385 130.5,194C 125.623,188.627 120.956,183.127 116.5,177.5 Z M 120.5,131.5 C 122.256,132.552 122.923,134.219 122.5,136.5C 122.549,139.099 123.549,141.266 125.5,143C 128.784,144.125 132.117,145.125 135.5,146C 132.316,146.754 129.649,148.254 127.5,150.5C 126.094,150.973 125.427,151.973 125.5,153.5C 124.724,156.675 124.557,160.008 125,163.5C 121.007,156.411 115.507,154.745 108.5,158.5C 107.209,158.737 106.209,158.404 105.5,157.5C 106.167,157.5 106.5,157.167 106.5,156.5C 108.293,154.574 109.293,152.241 109.5,149.5C 109.5,149.167 109.5,148.833 109.5,148.5C 109.25,146.326 108.25,144.659 106.5,143.5C 105.4,142.395 104.733,141.062 104.5,139.5C 112.592,142.121 117.926,139.454 120.5,131.5 Z"/></g>
<g><path style="opacity:0.969" fill="#ff6ec0" d="M 219.5,96.5 C 220.885,97.9473 220.552,98.9473 218.5,99.5C 219.11,98.609 219.443,97.609 219.5,96.5 Z"/></g>
<g><path style="opacity:0.969" fill="#ff57b0" d="M 122.5,98.5 C 123.738,98.81 123.738,99.31 122.5,100C 121.906,100.464 121.239,100.631 120.5,100.5C 120.833,99.5 121.5,98.8333 122.5,98.5 Z"/></g>
<g><path style="opacity:0.969" fill="#ff80a4" d="M 218.5,101.5 C 219.551,103.929 220.884,106.262 222.5,108.5C 219.41,107.335 218.076,105.002 218.5,101.5 Z"/></g>
<g><path style="opacity:0.98" fill="#ff5fbc" d="M 391.5,101.5 C 392.441,103.05 393.107,104.716 393.5,106.5C 391.318,105.177 390.651,103.51 391.5,101.5 Z"/></g>
<g><path style="opacity:0.965" fill="#ff678e" d="M 271.5,106.5 C 273.978,107.883 276.645,108.883 279.5,109.5C 276.254,110.525 273.587,109.525 271.5,106.5 Z"/></g>
<g><path style="opacity:0.616" fill="#ff88bd" d="M 233.5,106.5 C 232.089,108.539 230.089,109.539 227.5,109.5C 229.355,108.31 231.188,106.977 233,105.5C 233.399,105.728 233.565,106.062 233.5,106.5 Z"/></g>
<g><path style="opacity:0.58" fill="#ff8dae" d="M 394.5,107.5 C 396.008,109.181 397.008,111.181 397.5,113.5C 395.461,112.089 394.461,110.089 394.5,107.5 Z"/></g>
<g><path style="opacity:0.702" fill="#ff86b0" d="M 431.5,113.5 C 434.292,114.392 435.625,116.392 435.5,119.5C 434.18,117.537 432.846,115.537 431.5,113.5 Z"/></g>
<g><path style="opacity:0.224" fill="#ff8bd7" d="M 87.5,119.5 C 89.6208,119.325 91.6208,119.659 93.5,120.5C 93.44,121.043 93.1067,121.376 92.5,121.5C 90.6639,120.972 88.9972,120.306 87.5,119.5 Z"/></g>
<g><path style="opacity:0.576" fill="#ff6175" d="M 435.5,120.5 C 435.539,123.089 434.539,125.089 432.5,126.5C 432.992,124.181 433.992,122.181 435.5,120.5 Z"/></g>
<g><path style="opacity:0.922" fill="#ff8088" d="M 386.5,125.5 C 388.963,127.732 390.963,130.398 392.5,133.5C 389.539,131.588 387.539,128.921 386.5,125.5 Z"/></g>
<g><path style="opacity:0.796" fill="#ff7398" d="M 72.5,127.5 C 74.5475,129.55 76.2141,131.883 77.5,134.5C 74.6769,133.008 73.0102,130.674 72.5,127.5 Z"/></g>
<g><path style="opacity:0.639" fill="#ff8ca7" d="M 246.5,131.5 C 246.389,132.117 246.056,132.617 245.5,133C 243.19,133.497 240.857,133.663 238.5,133.5C 241.003,132.629 243.67,131.963 246.5,131.5 Z"/></g>
<g><path style="opacity:1" fill="#ffce56" d="M 246.5,131.5 C 262.645,130.301 277.978,132.968 292.5,139.5C 294.178,141.341 296.678,143.008 300,144.5C 300.399,144.272 300.565,143.938 300.5,143.5C 304.078,145.075 307.411,147.075 310.5,149.5C 310.5,151.5 311.5,152.5 313.5,152.5C 315.23,153.026 316.564,154.026 317.5,155.5C 317.062,155.435 316.728,155.601 316.5,156C 318,157.5 319.5,159 321,160.5C 321.399,160.272 321.565,159.938 321.5,159.5C 323.262,160.262 324.262,161.596 324.5,163.5C 324.5,165.5 325.5,166.5 327.5,166.5C 329.326,168.147 330.66,170.147 331.5,172.5C 331.062,172.435 330.728,172.601 330.5,173C 331.733,174.667 333.067,176.167 334.5,177.5C 340.367,186.583 344.2,196.583 346,207.5C 348.41,221.17 347.577,234.504 343.5,247.5C 342.076,249.515 341.41,251.848 341.5,254.5C 341.443,255.609 341.11,256.609 340.5,257.5C 338.896,258.287 338.229,259.62 338.5,261.5C 336.073,268.907 332.073,275.24 326.5,280.5C 323.097,282.9 320.43,285.9 318.5,289.5C 317.375,291.129 316.041,292.629 314.5,294C 311.778,296.358 308.778,298.191 305.5,299.5C 302.337,300.116 300.337,301.449 299.5,303.5C 296.912,305.625 293.912,306.958 290.5,307.5C 287.784,307.386 285.784,308.386 284.5,310.5C 264.054,316.113 243.72,315.779 223.5,309.5C 223.179,307.952 222.179,307.285 220.5,307.5C 219.833,307.5 219.167,307.5 218.5,307.5C 217.618,305.616 216.118,304.283 214,303.5C 213.601,303.728 213.435,304.062 213.5,304.5C 208.657,302.582 204.323,299.916 200.5,296.5C 201.332,295.671 200.999,294.838 199.5,294C 198.255,293.209 196.922,292.709 195.5,292.5C 194.833,289.833 193.167,288.167 190.5,287.5C 183.664,281.661 178.33,274.661 174.5,266.5C 175.349,264.49 174.682,262.823 172.5,261.5C 171.069,260.22 170.402,258.553 170.5,256.5C 170.072,253.215 169.072,250.215 167.5,247.5C 163.122,233.464 162.456,219.131 165.5,204.5C 167.554,201.992 168.554,198.992 168.5,195.5C 169.204,190.71 170.871,186.377 173.5,182.5C 173.435,182.938 173.601,183.272 174,183.5C 174.374,182.584 174.874,181.75 175.5,181C 175.272,180.601 174.938,180.435 174.5,180.5C 178.006,172.998 182.673,166.332 188.5,160.5C 191.764,158.906 194.431,156.573 196.5,153.5C 196.833,152.5 197.5,151.833 198.5,151.5C 201.198,151.155 203.198,149.822 204.5,147.5C 205.436,146.026 206.77,145.026 208.5,144.5C 212.233,143.978 214.9,142.645 216.5,140.5C 218.426,138.707 220.759,137.707 223.5,137.5C 226.916,137.472 229.916,136.472 232.5,134.5C 234.379,133.659 236.379,133.325 238.5,133.5C 240.857,133.663 243.19,133.497 245.5,133C 246.056,132.617 246.389,132.117 246.5,131.5 Z M 275.5,150.5 C 276.959,150.433 278.292,150.766 279.5,151.5C 281.746,152.455 284.079,153.122 286.5,153.5C 288.181,155.008 290.181,156.008 292.5,156.5C 297.795,160.488 303.128,164.488 308.5,168.5C 309.167,169.833 310.167,170.833 311.5,171.5C 312.026,173.23 313.026,174.564 314.5,175.5C 315.604,177.389 316.937,179.055 318.5,180.5C 318.328,181.492 318.662,182.158 319.5,182.5C 320.167,183.833 320.833,185.167 321.5,186.5C 322.263,188.368 323.263,190.035 324.5,191.5C 325.264,194.018 326.264,196.351 327.5,198.5C 331.845,212.656 332.512,226.99 329.5,241.5C 328.596,242.209 328.263,243.209 328.5,244.5C 326.928,247.215 325.928,250.215 325.5,253.5C 323.992,255.181 322.992,257.181 322.5,259.5C 320.265,262.291 318.265,265.291 316.5,268.5C 314.5,269.976 312.833,271.809 311.5,274C 310.563,274.692 309.897,274.525 309.5,273.5C 303.112,257.612 292.112,246.112 276.5,239C 280.452,234.916 283.786,230.416 286.5,225.5C 287.167,223.167 287.833,220.833 288.5,218.5C 288.5,214.833 288.5,211.167 288.5,207.5C 287.838,202.158 285.838,197.492 282.5,193.5C 278.041,186.566 271.707,182.066 263.5,180C 238.715,177.037 225.049,187.871 222.5,212.5C 222.294,223.253 226.294,232.086 234.5,239C 228.075,241.867 222.409,245.7 217.5,250.5C 214.45,252.549 212.117,255.216 210.5,258.5C 209.662,258.842 209.328,259.508 209.5,260.5C 208.5,260.833 207.833,261.5 207.5,262.5C 205.262,265.972 203.262,269.638 201.5,273.5C 201.44,274.043 201.107,274.376 200.5,274.5C 199.148,273.476 197.815,272.476 196.5,271.5C 196.262,269.596 195.262,268.262 193.5,267.5C 192,263.827 190,260.494 187.5,257.5C 187.34,255.847 186.674,254.514 185.5,253.5C 185.567,252.041 185.234,250.708 184.5,249.5C 184.34,247.847 183.674,246.514 182.5,245.5C 182.212,242.061 181.546,238.728 180.5,235.5C 179.268,227.825 179.268,220.158 180.5,212.5C 181.092,209.873 181.425,207.206 181.5,204.5C 183.427,199.073 185.761,193.74 188.5,188.5C 189.5,186.5 190.5,184.5 191.5,182.5C 200.234,170.293 211.234,160.626 224.5,153.5C 227.443,153.02 230.11,152.02 232.5,150.5C 246.884,146.606 261.218,146.606 275.5,150.5 Z M 250.5,229.5 C 250.158,228.662 249.492,228.328 248.5,228.5C 246.028,227.091 243.695,225.424 241.5,223.5C 241.008,221.181 240.008,219.181 238.5,217.5C 237.512,201.653 244.845,194.487 260.5,196C 272.935,202.067 275.769,211.233 269,223.5C 263.934,228.778 257.767,230.778 250.5,229.5 Z M 277.5,257.5 C 278.585,259.587 280.251,260.92 282.5,261.5C 285.152,265.482 288.152,269.149 291.5,272.5C 291.992,274.819 292.992,276.819 294.5,278.5C 295.108,281.327 296.108,283.993 297.5,286.5C 295.973,286.427 294.973,287.094 294.5,288.5C 293.508,288.328 292.842,288.662 292.5,289.5C 290.716,289.893 289.05,290.559 287.5,291.5C 272.846,298.309 257.512,300.309 241.5,297.5C 239.194,297.007 236.861,296.674 234.5,296.5C 232.786,295.262 230.786,294.595 228.5,294.5C 227.71,293.599 226.71,292.932 225.5,292.5C 223.287,291.227 220.954,290.227 218.5,289.5C 216.833,288.167 215.167,286.833 213.5,285.5C 218.725,271.775 227.725,261.275 240.5,254C 253.448,248.827 265.782,249.994 277.5,257.5 Z"/></g>
<g><path style="opacity:0.769" fill="#ff4d8e" d="M 342.5,130.5 C 341.758,132.35 340.758,133.016 339.5,132.5C 339.973,131.094 340.973,130.427 342.5,130.5 Z"/></g>
<g><path style="opacity:0.702" fill="#ff9bc1" d="M 122.5,136.5 C 122.923,134.219 122.256,132.552 120.5,131.5C 120.947,128.476 121.78,128.143 123,130.5C 123.789,132.712 123.622,134.712 122.5,136.5 Z"/></g>
<g><path style="opacity:0.149" fill="#ff8b9f" d="M 384.5,132.5 C 384.631,135.367 383.297,137.033 380.5,137.5C 381.864,135.809 383.197,134.142 384.5,132.5 Z"/></g>
<g><path style="opacity:0.075" fill="#ff7ec7" d="M 426.5,133.5 C 425.167,135.5 423.5,137.167 421.5,138.5C 421.062,138.565 420.728,138.399 420.5,138C 422.114,135.873 424.114,134.373 426.5,133.5 Z"/></g>
<g><path style="opacity:0.984" fill="#ff698c" d="M 232.5,134.5 C 229.916,136.472 226.916,137.472 223.5,137.5C 226.215,135.928 229.215,134.928 232.5,134.5 Z"/></g>
<g><path style="opacity:0.553" fill="#ff56af" d="M 292.5,139.5 C 295.485,140.326 298.151,141.659 300.5,143.5C 300.565,143.938 300.399,144.272 300,144.5C 296.678,143.008 294.178,141.341 292.5,139.5 Z"/></g>
<g><path style="opacity:0.98" fill="#ff4396" d="M 216.5,140.5 C 214.9,142.645 212.233,143.978 208.5,144.5C 210.849,142.659 213.515,141.326 216.5,140.5 Z"/></g>
<g><path style="opacity:0.878" fill="#ff82ad" d="M 85.5,143.5 C 88.5,144.5 90.5,146.5 91.5,149.5C 89.1667,147.833 87.1667,145.833 85.5,143.5 Z"/></g>
<g><path style="opacity:0.294" fill="#ff4f98" d="M 106.5,143.5 C 108.25,144.659 109.25,146.326 109.5,148.5C 108.067,147.167 106.733,145.667 105.5,144C 105.728,143.601 106.062,143.435 106.5,143.5 Z"/></g>
<g><path style="opacity:0.118" fill="#ff468b" d="M 345.5,145.5 C 347.179,145.285 348.179,145.952 348.5,147.5C 347.29,147.068 346.29,146.401 345.5,145.5 Z"/></g>
<g><path style="opacity:0.478" fill="#ff35c8" d="M 275.5,150.5 C 275.917,149.876 276.584,149.543 277.5,149.5C 278.713,149.747 279.38,150.414 279.5,151.5C 278.292,150.766 276.959,150.433 275.5,150.5 Z"/></g>
<g><path style="opacity:0.769" fill="#ff75a5" d="M 204.5,147.5 C 203.198,149.822 201.198,151.155 198.5,151.5C 200.147,149.674 202.147,148.34 204.5,147.5 Z"/></g>
<g><path style="opacity:0.129" fill="#ff70b8" d="M 232.5,150.5 C 230.11,152.02 227.443,153.02 224.5,153.5C 226.992,151.232 229.658,150.232 232.5,150.5 Z"/></g>
<g><path style="opacity:0.894" fill="#ff84c5" d="M 310.5,149.5 C 311.833,150.167 312.833,151.167 313.5,152.5C 311.5,152.5 310.5,151.5 310.5,149.5 Z"/></g>
<g><path style="opacity:0.047" fill="#ff7a93" d="M 355.5,150.5 C 355.56,149.957 355.893,149.624 356.5,149.5C 359.059,150.608 361.392,151.941 363.5,153.5C 360.62,153.06 357.954,152.06 355.5,150.5 Z"/></g>
<g><path style="opacity:0.706" fill="#ff449d" d="M 127.5,150.5 C 127.374,152.622 126.707,153.622 125.5,153.5C 125.427,151.973 126.094,150.973 127.5,150.5 Z"/></g>
<g><path style="opacity:0.663" fill="#ff659a" d="M 286.5,153.5 C 289.089,153.461 291.089,154.461 292.5,156.5C 290.181,156.008 288.181,155.008 286.5,153.5 Z"/></g>
<g><path style="opacity:0.11" fill="#ff3992" d="M 366.5,158.5 C 366.567,157.041 366.234,155.708 365.5,154.5C 365.81,153.262 366.31,153.262 367,154.5C 367.765,156.066 367.598,157.399 366.5,158.5 Z"/></g>
<g><path style="opacity:0.016" fill="#ffb3c4" d="M 109.5,149.5 C 109.293,152.241 108.293,154.574 106.5,156.5C 106.062,156.565 105.728,156.399 105.5,156C 106.733,153.686 108.067,151.519 109.5,149.5 Z"/></g>
<g><path style="opacity:0.98" fill="#ff4ba9" d="M 421.5,153.5 C 422.441,155.05 423.107,156.716 423.5,158.5C 421.318,157.177 420.651,155.51 421.5,153.5 Z"/></g>
<g><path style="opacity:0.804" fill="#ff82ab" d="M 196.5,153.5 C 194.431,156.573 191.764,158.906 188.5,160.5C 190.569,157.427 193.236,155.094 196.5,153.5 Z"/></g>
<g><path style="opacity:0.18" fill="#ff7abe" d="M 385.5,155.5 C 385.938,155.435 386.272,155.601 386.5,156C 384.86,157.395 383.36,158.895 382,160.5C 381.26,159.251 381.427,158.251 382.5,157.5C 383.5,156.833 384.5,156.167 385.5,155.5 Z"/></g>
<g><path style="opacity:0.302" fill="#ff93be" d="M 105.5,157.5 C 106.209,158.404 107.209,158.737 108.5,158.5C 107.152,159.601 105.652,160.601 104,161.5C 103.227,159.648 103.727,158.314 105.5,157.5 Z"/></g>
<g><path style="opacity:0.82" fill="#ff6d90" d="M 317.5,155.5 C 319.167,156.5 320.5,157.833 321.5,159.5C 321.565,159.938 321.399,160.272 321,160.5C 319.5,159 318,157.5 316.5,156C 316.728,155.601 317.062,155.435 317.5,155.5 Z"/></g>
<g><path style="opacity:0.98" fill="#ff79e5" d="M 366.5,159.5 C 366.938,159.435 367.272,159.601 367.5,160C 366.915,161.302 366.249,162.469 365.5,163.5C 365.232,161.901 365.566,160.568 366.5,159.5 Z"/></g>
<g><path style="opacity:0.992" fill="#ff58a9" d="M 85.5,161.5 C 86.5498,161.905 86.5498,162.571 85.5,163.5C 85.0431,164.298 84.3764,164.631 83.5,164.5C 83.9321,163.29 84.5987,162.29 85.5,161.5 Z"/></g>
<g><path style="opacity:0.176" fill="#ff52a8" d="M 324.5,163.5 C 325.833,164.167 326.833,165.167 327.5,166.5C 325.5,166.5 324.5,165.5 324.5,163.5 Z"/></g>
<g><path style="opacity:0.047" fill="#ff7481" d="M 425.5,161.5 C 427.588,163.336 428.921,165.669 429.5,168.5C 429.565,168.938 429.399,169.272 429,169.5C 427.519,166.89 426.352,164.223 425.5,161.5 Z"/></g>
<g><path style="opacity:0.992" fill="#ff5ad3" d="M 311.5,171.5 C 310.167,170.833 309.167,169.833 308.5,168.5C 308.435,168.062 308.601,167.728 309,167.5C 310.481,168.471 311.315,169.804 311.5,171.5 Z"/></g>
<g><path style="opacity:0.843" fill="#ff6caa" d="M 116.5,177.5 C 114.947,175.615 112.947,174.615 110.5,174.5C 111.002,172.915 112.002,172.415 113.5,173C 114.833,174.333 116.167,175.667 117.5,177C 117.272,177.399 116.938,177.565 116.5,177.5 Z"/></g>
<g><path style="opacity:0.706" fill="#ff8a98" d="M 109.5,174.5 C 106.249,176.957 102.582,178.624 98.5,179.5C 101.751,177.043 105.418,175.376 109.5,174.5 Z"/></g>
<g><path style="opacity:0.984" fill="#ff7aa4" d="M 331.5,172.5 C 333.25,173.659 334.25,175.326 334.5,177.5C 333.067,176.167 331.733,174.667 330.5,173C 330.728,172.601 331.062,172.435 331.5,172.5 Z"/></g>
<g><path style="opacity:0.996" fill="#ff7ca7" d="M 318.5,180.5 C 316.937,179.055 315.604,177.389 314.5,175.5C 315.329,174.668 316.162,175.001 317,176.5C 317.465,177.931 318.299,179.097 319.5,180C 319.272,180.399 318.938,180.565 318.5,180.5 Z"/></g>
<g><path style="opacity:0.725" fill="#ff5eb6" d="M 417.5,178.5 C 419.128,177.147 420.462,177.481 421.5,179.5C 420.167,179.167 418.833,178.833 417.5,178.5 Z"/></g>
<g><path style="opacity:0.239" fill="#ff56a6" d="M 364.5,177.5 C 365.043,177.56 365.376,177.893 365.5,178.5C 365.006,180.026 364.339,181.359 363.5,182.5C 363.366,180.708 363.699,179.042 364.5,177.5 Z"/></g>
<g><path style="opacity:0.933" fill="#ff2fa2" d="M 174.5,180.5 C 174.938,180.435 175.272,180.601 175.5,181C 174.874,181.75 174.374,182.584 174,183.5C 173.601,183.272 173.435,182.938 173.5,182.5C 173.328,181.508 173.662,180.842 174.5,180.5 Z"/></g>
<g><path style="opacity:0.176" fill="#ff4eae" d="M 191.5,182.5 C 190.5,184.5 189.5,186.5 188.5,188.5C 187.957,188.44 187.624,188.107 187.5,187.5C 188.333,185.833 189.167,184.167 190,182.5C 190.69,181.262 191.19,181.262 191.5,182.5 Z"/></g>
<g><path style="opacity:0.561" fill="#ff53ae" d="M 321.5,186.5 C 320.833,185.167 320.167,183.833 319.5,182.5C 319.81,181.262 320.31,181.262 321,182.5C 322.298,183.946 322.465,185.279 321.5,186.5 Z"/></g>
<g><path style="opacity:0.788" fill="#ff9cab" d="M 282.5,193.5 C 285.838,197.492 287.838,202.158 288.5,207.5C 286.324,202.992 284.324,198.325 282.5,193.5 Z"/></g>
<g><path style="opacity:0.039" fill="#ffa2b5" d="M 327.5,198.5 C 326.264,196.351 325.264,194.018 324.5,191.5C 324.435,191.062 324.601,190.728 325,190.5C 326.707,192.909 327.54,195.575 327.5,198.5 Z"/></g>
<g><path style="opacity:0.824" fill="#ff6570" d="M 168.5,195.5 C 168.554,198.992 167.554,201.992 165.5,204.5C 166.054,201.254 167.054,198.254 168.5,195.5 Z"/></g>
<g><path style="opacity:0.324" fill="#ff4a6f" d="M 181.5,204.5 C 181.425,207.206 181.092,209.873 180.5,212.5C 179.509,209.756 179.843,207.089 181.5,204.5 Z"/></g>
<g><path style="opacity:0.075" fill="#ff95bd" d="M 238.5,217.5 C 240.008,219.181 241.008,221.181 241.5,223.5C 239.821,222 238.488,220.167 237.5,218C 237.728,217.601 238.062,217.435 238.5,217.5 Z"/></g>
<g><path style="opacity:0.082" fill="#ff615f" d="M 288.5,218.5 C 287.833,220.833 287.167,223.167 286.5,225.5C 285.903,225.265 285.57,224.765 285.5,224C 285.859,221.704 286.859,219.871 288.5,218.5 Z"/></g>
<g><path style="opacity:0.459" fill="#ff75c1" d="M 248.5,228.5 C 249.492,228.328 250.158,228.662 250.5,229.5C 250.565,229.938 250.399,230.272 250,230.5C 249.25,229.874 248.416,229.374 247.5,229C 247.728,228.601 248.062,228.435 248.5,228.5 Z"/></g>
<g><path style="opacity:0.592" fill="#ff828d" d="M 180.5,235.5 C 181.546,238.728 182.212,242.061 182.5,245.5C 181.133,242.732 180.133,239.732 179.5,236.5C 179.624,235.893 179.957,235.56 180.5,235.5 Z"/></g>
<g><path style="opacity:0.992" fill="#ff74d5" d="M 329.5,241.5 C 329.938,241.435 330.272,241.601 330.5,242C 329.934,242.995 329.267,243.828 328.5,244.5C 328.263,243.209 328.596,242.209 329.5,241.5 Z"/></g>
<g><path style="opacity:0.941" fill="#ff76cb" d="M 184.5,249.5 C 185.234,250.708 185.567,252.041 185.5,253.5C 183.862,252.295 183.529,250.962 184.5,249.5 Z"/></g>
<g><path style="opacity:0.631" fill="#ff4a82" d="M 167.5,247.5 C 169.072,250.215 170.072,253.215 170.5,256.5C 168.528,253.916 167.528,250.916 167.5,247.5 Z"/></g>
<g><path style="opacity:0.631" fill="#ff5593" d="M 343.5,247.5 C 343.59,250.152 342.924,252.485 341.5,254.5C 341.41,251.848 342.076,249.515 343.5,247.5 Z"/></g>
<g><path style="opacity:0.733" fill="#ff9996" d="M 217.5,250.5 C 217.938,250.435 218.272,250.601 218.5,251C 215.891,253.783 213.224,256.283 210.5,258.5C 212.117,255.216 214.45,252.549 217.5,250.5 Z"/></g>
<g><path style="opacity:0.671" fill="#ff679f" d="M 325.5,253.5 C 325.539,256.089 324.539,258.089 322.5,259.5C 322.992,257.181 323.992,255.181 325.5,253.5 Z"/></g>
<g><path style="opacity:0.051" fill="#ff5ec2" d="M 340.5,257.5 C 340.34,259.153 339.674,260.486 338.5,261.5C 338.229,259.62 338.896,258.287 340.5,257.5 Z"/></g>
<g><path style="opacity:0.043" fill="#ff8faa" d="M 277.5,257.5 C 279.749,258.08 281.415,259.413 282.5,261.5C 280.251,260.92 278.585,259.587 277.5,257.5 Z"/></g>
<g><path style="opacity:0.357" fill="#ffa299" d="M 187.5,257.5 C 190,260.494 192,263.827 193.5,267.5C 190.822,264.668 188.488,261.501 186.5,258C 186.728,257.601 187.062,257.435 187.5,257.5 Z"/></g>
<g><path style="opacity:0.729" fill="#ff5cba" d="M 209.5,260.5 C 209.631,261.239 209.464,261.906 209,262.5C 208.31,263.738 207.81,263.738 207.5,262.5C 207.833,261.5 208.5,260.833 209.5,260.5 Z"/></g>
<g><path style="opacity:0.651" fill="#ff59ac" d="M 172.5,261.5 C 174.682,262.823 175.349,264.49 174.5,266.5C 173.559,264.95 172.893,263.284 172.5,261.5 Z"/></g>
<g><path style="opacity:0.643" fill="#ff9284" d="M 316.5,268.5 C 316.938,268.435 317.272,268.601 317.5,269C 315.5,271.333 313.5,273.667 311.5,276C 308.979,276.329 308.312,275.496 309.5,273.5C 309.897,274.525 310.563,274.692 311.5,274C 312.833,271.809 314.5,269.976 316.5,268.5 Z"/></g>
<g><path style="opacity:0.898" fill="#ff8298" d="M 196.5,271.5 C 197.815,272.476 199.148,273.476 200.5,274.5C 201.107,274.376 201.44,274.043 201.5,273.5C 202.737,274.743 202.404,275.743 200.5,276.5C 198.389,275.395 197.055,273.729 196.5,271.5 Z"/></g>
<g><path style="opacity:0.957" fill="#ff3a96" d="M 291.5,272.5 C 293.539,273.911 294.539,275.911 294.5,278.5C 292.992,276.819 291.992,274.819 291.5,272.5 Z"/></g>
<g><path style="opacity:0.122" fill="#ff889b" d="M 326.5,280.5 C 324.57,284.1 321.903,287.1 318.5,289.5C 320.43,285.9 323.097,282.9 326.5,280.5 Z"/></g>
<g><path style="opacity:0.929" fill="#ff85a3" d="M 213.5,285.5 C 215.167,286.833 216.833,288.167 218.5,289.5C 218.565,289.938 218.399,290.272 218,290.5C 216.414,289.624 214.914,288.624 213.5,287.5C 212.227,286.743 212.227,286.077 213.5,285.5 Z"/></g>
<g><path style="opacity:0.769" fill="#ff4c90" d="M 297.5,286.5 C 297.622,287.707 296.622,288.374 294.5,288.5C 294.973,287.094 295.973,286.427 297.5,286.5 Z"/></g>
<g><path style="opacity:0.212" fill="#ff6597" d="M 190.5,287.5 C 193.167,288.167 194.833,289.833 195.5,292.5C 193.5,291.167 191.833,289.5 190.5,287.5 Z"/></g>
<g><path style="opacity:0.839" fill="#ff6dbd" d="M 292.5,289.5 C 292.146,290.806 290.812,291.806 288.5,292.5C 287.893,292.376 287.56,292.043 287.5,291.5C 289.05,290.559 290.716,289.893 292.5,289.5 Z"/></g>
<g><path style="opacity:0.18" fill="#ff75cf" d="M 225.5,292.5 C 226.71,292.932 227.71,293.599 228.5,294.5C 226.821,294.715 225.821,294.048 225.5,292.5 Z"/></g>
<g><path style="opacity:0.843" fill="#ff6aa4" d="M 195.5,292.5 C 196.922,292.709 198.255,293.209 199.5,294C 200.999,294.838 201.332,295.671 200.5,296.5C 198.611,295.396 196.945,294.063 195.5,292.5 Z"/></g>
<g><path style="opacity:0.667" fill="#ff7191" d="M 234.5,296.5 C 236.861,296.674 239.194,297.007 241.5,297.5C 239.047,298.645 236.713,298.312 234.5,296.5 Z"/></g>
<g><path style="opacity:0.224" fill="#ff7aa2" d="M 305.5,299.5 C 303.853,301.326 301.853,302.66 299.5,303.5C 300.337,301.449 302.337,300.116 305.5,299.5 Z"/></g>
<g><path style="opacity:1" fill="#ffce56" d="M 189.5,306.5 C 191.55,308.547 193.883,310.214 196.5,311.5C 199.514,315.193 201.181,319.526 201.5,324.5C 199.812,333.252 197.812,341.918 195.5,350.5C 194.414,350.62 193.747,351.287 193.5,352.5C 193.543,353.416 193.876,354.083 194.5,354.5C 194.5,355.167 194.167,355.5 193.5,355.5C 192.661,356.641 191.994,357.974 191.5,359.5C 191.624,360.107 191.957,360.44 192.5,360.5C 191.833,363.167 191.167,365.833 190.5,368.5C 190.484,371.832 191.817,373.166 194.5,372.5C 204.227,375.015 213.894,377.681 223.5,380.5C 224.172,381.267 225.005,381.934 226,382.5C 226.399,382.272 226.565,381.938 226.5,381.5C 229.649,381.415 232.316,382.415 234.5,384.5C 236.833,387.5 239.5,390.167 242.5,392.5C 245.652,398.065 245.985,403.731 243.5,409.5C 243.565,409.062 243.399,408.728 243,408.5C 242.252,410.332 241.252,411.999 240,413.5C 239.308,414.437 239.475,415.103 240.5,415.5C 239.595,416.702 239.595,418.036 240.5,419.5C 240.062,419.435 239.728,419.601 239.5,420C 240.191,421.067 240.691,422.234 241,423.5C 241.399,423.272 241.565,422.938 241.5,422.5C 242.791,426.399 242.791,430.399 241.5,434.5C 238.549,439.451 234.549,443.451 229.5,446.5C 228.2,449.309 228.2,451.976 229.5,454.5C 228.564,460.932 225.397,465.932 220,469.5C 219.667,473.5 219.333,477.5 219,481.5C 218.246,484.684 216.746,487.351 214.5,489.5C 212.871,489.372 211.538,490.372 210.5,492.5C 208.779,494.694 206.445,495.861 203.5,496C 200.167,496.667 196.833,496.667 193.5,496C 172.25,490.607 151.25,484.774 130.5,478.5C 129.359,477.661 128.026,476.994 126.5,476.5C 125.893,476.624 125.56,476.957 125.5,477.5C 119.061,476.28 113.061,473.946 107.5,470.5C 105.433,467.114 102.433,464.781 98.5,463.5C 96.0587,462.443 93.7254,461.11 91.5,459.5C 88.6055,467.035 83.1055,471.035 75,471.5C 60.9087,468.354 47.0753,464.687 33.5,460.5C 32.8559,458.946 31.1892,457.946 28.5,457.5C 25.4445,455.737 23.6111,453.07 23,449.5C 22.2922,444.371 22.7922,439.371 24.5,434.5C 25.5862,434.38 26.2528,433.713 26.5,432.5C 27.154,431.185 27.154,430.185 26.5,429.5C 26.5597,426.659 27.2264,423.993 28.5,421.5C 30.2757,418.111 31.609,414.444 32.5,410.5C 32.3764,409.893 32.0431,409.56 31.5,409.5C 31.8333,408.167 32.1667,406.833 32.5,405.5C 34.3818,404.779 34.7152,403.779 33.5,402.5C 33.595,400.214 34.2616,398.214 35.5,396.5C 37.0395,394.162 37.7062,391.495 37.5,388.5C 38.0966,384.381 39.0966,380.381 40.5,376.5C 42.1628,374.562 42.8294,372.228 42.5,369.5C 44.6199,358.973 47.4532,348.64 51,338.5C 56.8251,331.089 63.9917,329.089 72.5,332.5C 74.7134,334.312 77.0467,334.645 79.5,333.5C 87.7726,335.985 96.106,338.319 104.5,340.5C 105.911,342.539 107.911,343.539 110.5,343.5C 116.553,348.312 118.886,354.645 117.5,362.5C 121.294,363.668 126.628,363.668 133.5,362.5C 142.761,360.695 149.094,355.362 152.5,346.5C 154.176,345.817 154.843,344.483 154.5,342.5C 156.056,333.518 158.389,324.851 161.5,316.5C 161.435,316.938 161.601,317.272 162,317.5C 162.792,315.413 163.959,313.579 165.5,312C 165.272,311.601 164.938,311.435 164.5,311.5C 164.833,310.5 165.5,309.833 166.5,309.5C 166.435,309.938 166.601,310.272 167,310.5C 169.191,309.167 171.024,307.5 172.5,305.5C 178.424,302.743 184.09,303.077 189.5,306.5 Z M 182.5,335.5 C 181.962,337.117 181.629,338.784 181.5,340.5C 180.097,344.381 179.097,348.381 178.5,352.5C 177.232,354.905 176.565,357.572 176.5,360.5C 173.033,372.09 176.7,380.923 187.5,387C 200.455,390.822 213.455,394.489 226.5,398C 230.164,401.941 229.33,405.107 224,407.5C 222.644,406.62 221.144,406.286 219.5,406.5C 217.485,405.076 215.152,404.41 212.5,404.5C 211.432,403.566 210.099,403.232 208.5,403.5C 207.432,402.566 206.099,402.232 204.5,402.5C 199.711,399.777 194.711,399.11 189.5,400.5C 187.589,400.574 186.422,401.574 186,403.5C 185.333,406.167 185.333,408.833 186,411.5C 186.383,412.056 186.883,412.389 187.5,412.5C 188.058,413.79 189.058,414.623 190.5,415C 202.459,417.737 214.125,421.237 225.5,425.5C 227.365,429.66 226.032,432.327 221.5,433.5C 215.283,431.362 208.949,429.696 202.5,428.5C 199.632,427.36 196.632,426.36 193.5,425.5C 187.87,423.299 183.036,424.299 179,428.5C 178.506,430.134 178.34,431.801 178.5,433.5C 178.75,435.674 179.75,437.341 181.5,438.5C 190.913,441.775 200.579,444.608 210.5,447C 213.451,449.084 214.117,451.751 212.5,455C 211.271,455.781 209.938,456.281 208.5,456.5C 198.924,453.689 189.257,451.356 179.5,449.5C 175.763,449.241 173.43,450.907 172.5,454.5C 170.932,458.256 171.932,461.423 175.5,464C 179.71,465.636 184.044,466.803 188.5,467.5C 190.599,468.612 192.933,469.279 195.5,469.5C 201.177,470.001 203.677,473.001 203,478.5C 201.687,479.573 200.187,480.24 198.5,480.5C 172.672,473.96 147.005,466.96 121.5,459.5C 119.95,458.559 118.284,457.893 116.5,457.5C 116.027,456.094 115.027,455.427 113.5,455.5C 113.027,454.094 112.027,453.427 110.5,453.5C 106.194,449.679 101.527,446.345 96.5,443.5C 95.7249,441.612 95.7249,439.612 96.5,437.5C 98.4743,431.605 100.141,425.605 101.5,419.5C 102.301,417.958 102.634,416.292 102.5,414.5C 103.64,411.632 104.64,408.632 105.5,405.5C 106.167,402.833 106.833,400.167 107.5,397.5C 107.5,397.167 107.5,396.833 107.5,396.5C 108.11,395.609 108.443,394.609 108.5,393.5C 109.831,388.846 111.164,384.179 112.5,379.5C 120.145,378.669 127.812,378.169 135.5,378C 152.132,375.53 163.132,366.363 168.5,350.5C 168.557,349.391 168.89,348.391 169.5,347.5C 171.318,338.393 173.984,329.56 177.5,321C 180.654,319.383 183.154,320.217 185,323.5C 184.814,327.584 183.981,331.584 182.5,335.5 Z M 65.5,346.5 C 67.0418,347.301 68.7085,347.634 70.5,347.5C 72.5145,348.924 74.8478,349.59 77.5,349.5C 78.209,350.404 79.209,350.737 80.5,350.5C 83.817,351.497 87.1503,352.497 90.5,353.5C 91.609,353.557 92.609,353.89 93.5,354.5C 96.6864,354.613 99.3531,355.78 101.5,358C 99.9465,362.047 98.9465,366.213 98.5,370.5C 97.596,371.209 97.2627,372.209 97.5,373.5C 97.1667,374.167 96.8333,374.833 96.5,375.5C 95.1848,380.095 94.1848,384.761 93.5,389.5C 89.4089,401.523 86.0756,413.856 83.5,426.5C 82.5655,427.568 82.2322,428.901 82.5,430.5C 81.8333,430.5 81.5,430.833 81.5,431.5C 80.8333,434.167 80.1667,436.833 79.5,439.5C 78.2344,444.963 76.5677,450.297 74.5,455.5C 69.3129,453.548 63.9796,452.215 58.5,451.5C 56.4855,450.076 54.1522,449.41 51.5,449.5C 47.0693,448.299 42.736,446.633 38.5,444.5C 43.8147,425.907 48.8147,407.24 53.5,388.5C 54.2341,387.292 54.5674,385.959 54.5,384.5C 58.1667,371.833 61.8333,359.167 65.5,346.5 Z"/></g>
<g><path style="opacity:1" fill="#ffce56" d="M 340.5,306.5 C 340.062,306.435 339.728,306.601 339.5,307C 344.887,310.493 348.554,314.659 350.5,319.5C 351.404,320.209 351.737,321.209 351.5,322.5C 350.957,322.56 350.624,322.893 350.5,323.5C 350.994,325.026 351.661,326.359 352.5,327.5C 353.946,330.254 354.946,333.254 355.5,336.5C 354.322,338.338 354.655,340.005 356.5,341.5C 359.232,352.898 366.232,359.898 377.5,362.5C 384.372,363.668 389.706,363.668 393.5,362.5C 393.187,358.958 393.521,355.625 394.5,352.5C 395.69,350.645 397.023,348.812 398.5,347C 398.272,346.601 397.938,346.435 397.5,346.5C 397.833,345.5 398.5,344.833 399.5,344.5C 399.435,344.938 399.601,345.272 400,345.5C 403.864,342.676 408.03,340.676 412.5,339.5C 422.293,336.381 432.293,333.548 442.5,331C 444.712,330.211 446.712,330.378 448.5,331.5C 449.531,332.249 450.698,332.915 452,333.5C 452.399,333.272 452.565,332.938 452.5,332.5C 454.749,333.08 456.415,334.413 457.5,336.5C 457.738,338.404 458.738,339.738 460.5,340.5C 465.612,357.27 470.278,374.27 474.5,391.5C 473.957,391.56 473.624,391.893 473.5,392.5C 473.994,394.026 474.661,395.359 475.5,396.5C 479.278,407.933 482.612,419.6 485.5,431.5C 484.115,432.947 484.448,433.947 486.5,434.5C 487.474,437.928 488.141,441.428 488.5,445C 488.573,448.61 487.573,451.777 485.5,454.5C 485.565,454.062 485.399,453.728 485,453.5C 483.198,454.789 482.031,456.456 481.5,458.5C 478.004,461.048 474.004,462.381 469.5,462.5C 467.102,462.259 465.102,462.926 463.5,464.5C 459.12,465.678 454.787,467.012 450.5,468.5C 448.32,467.206 446.32,467.539 444.5,469.5C 433.184,473.617 424.85,470.284 419.5,459.5C 416.816,461.193 414.149,462.86 411.5,464.5C 411.565,464.062 411.399,463.728 411,463.5C 408.92,465.123 406.754,466.623 404.5,468C 404.728,468.399 405.062,468.565 405.5,468.5C 404.341,470.25 402.674,471.25 400.5,471.5C 395.738,472.925 391.738,474.591 388.5,476.5C 365.032,483.26 341.365,489.76 317.5,496C 312.556,496.873 307.89,496.373 303.5,494.5C 301.704,492.1 299.37,490.433 296.5,489.5C 292.043,484.056 290.376,477.723 291.5,470.5C 292.239,470.631 292.906,470.464 293.5,470C 291.449,467.98 289.116,466.48 286.5,465.5C 285.662,465.158 285.328,464.492 285.5,463.5C 285.008,461.181 284.008,459.181 282.5,457.5C 281.532,455.393 281.198,453.059 281.5,450.5C 282.782,449.292 282.782,447.958 281.5,446.5C 279.247,445.747 277.413,444.414 276,442.5C 275.601,442.728 275.435,443.062 275.5,443.5C 274.167,442.833 273.167,441.833 272.5,440.5C 272.293,437.759 271.293,435.426 269.5,433.5C 267.851,427.838 268.518,422.338 271.5,417C 270.944,416.617 270.611,416.117 270.5,415.5C 271.043,415.44 271.376,415.107 271.5,414.5C 270.143,412.435 268.81,410.435 267.5,408.5C 266.545,406.717 265.878,404.717 265.5,402.5C 265.967,398.094 267.301,394.094 269.5,390.5C 272.157,389.562 274.49,387.562 276.5,384.5C 278.684,382.415 281.351,381.415 284.5,381.5C 284.435,381.938 284.601,382.272 285,382.5C 285.995,381.934 286.828,381.267 287.5,380.5C 289.5,379.833 291.5,379.167 293.5,378.5C 293.735,379.097 294.235,379.43 295,379.5C 297.377,379.164 298.877,378.497 299.5,377.5C 305.289,375.38 311.289,373.546 317.5,372C 318.872,370.758 319.872,369.258 320.5,367.5C 317.852,358.907 315.519,350.24 313.5,341.5C 314.043,341.44 314.376,341.107 314.5,340.5C 314.216,338.241 313.216,336.574 311.5,335.5C 307.322,324.395 309.655,315.061 318.5,307.5C 319.779,308.715 320.779,308.382 321.5,306.5C 327.797,302.65 334.13,302.65 340.5,306.5 Z M 331.5,319.5 C 332.795,320.488 334.128,321.488 335.5,322.5C 337.612,334.301 340.946,345.634 345.5,356.5C 345.845,359.198 347.178,361.198 349.5,362.5C 349.427,364.027 350.094,365.027 351.5,365.5C 352.585,367.587 354.251,368.92 356.5,369.5C 356.5,370.167 356.833,370.5 357.5,370.5C 358.659,372.25 360.326,373.25 362.5,373.5C 366.424,375.865 370.757,377.365 375.5,378C 383.344,378.171 391.011,378.671 398.5,379.5C 399.167,381.5 399.833,383.5 400.5,385.5C 402.055,392.733 404.055,399.733 406.5,406.5C 406.232,408.099 406.566,409.432 407.5,410.5C 408.523,415.927 409.857,421.26 411.5,426.5C 411.629,428.216 411.962,429.883 412.5,431.5C 412.5,432.167 412.833,432.5 413.5,432.5C 413.232,434.099 413.566,435.432 414.5,436.5C 414.517,438.565 414.85,440.565 415.5,442.5C 413.246,443.124 411.579,444.457 410.5,446.5C 408.938,446.733 407.605,447.4 406.5,448.5C 400.156,453.676 393.156,457.842 385.5,461C 369.088,465.352 352.755,469.852 336.5,474.5C 335.209,474.263 334.209,474.596 333.5,475.5C 331.901,475.232 330.568,475.566 329.5,476.5C 327.708,476.366 326.042,476.699 324.5,477.5C 320.518,478.495 316.518,479.495 312.5,480.5C 306.679,478.567 306.012,475.4 310.5,471C 318.21,469.156 325.876,467.156 333.5,465C 335.66,464.004 337.327,462.504 338.5,460.5C 340.29,455.739 338.956,452.072 334.5,449.5C 329.106,449.124 324.106,450.124 319.5,452.5C 315.521,452.742 311.854,453.742 308.5,455.5C 306.435,455.517 304.435,455.85 302.5,456.5C 297.508,455.329 296.175,452.329 298.5,447.5C 300.117,446.962 301.784,446.629 303.5,446.5C 312.628,444.133 321.628,441.3 330.5,438C 334.632,430.593 332.632,426.093 324.5,424.5C 312.676,426.886 301.009,429.886 289.5,433.5C 284.968,432.327 283.635,429.66 285.5,425.5C 289.604,423.243 293.938,421.576 298.5,420.5C 299.959,420.567 301.292,420.234 302.5,419.5C 308.402,418.279 314.068,416.612 319.5,414.5C 321.933,414.727 323.599,413.727 324.5,411.5C 325.461,409.735 325.795,407.735 325.5,405.5C 325.33,402.796 323.997,401.129 321.5,400.5C 320.432,399.566 319.099,399.232 317.5,399.5C 315.139,399.674 312.806,400.007 310.5,400.5C 308.833,401.167 307.167,401.833 305.5,402.5C 302.933,402.721 300.599,403.388 298.5,404.5C 294.524,404.993 290.69,405.993 287,407.5C 284.279,406.281 282.446,404.281 281.5,401.5C 282.559,399.445 284.225,398.111 286.5,397.5C 298.771,393.911 311.104,390.411 323.5,387C 326.936,385.726 329.603,383.559 331.5,380.5C 332.338,380.158 332.672,379.492 332.5,378.5C 333.338,378.158 333.672,377.492 333.5,376.5C 335.163,374.562 335.829,372.228 335.5,369.5C 336.139,368.903 336.472,368.07 336.5,367C 333.303,352.878 329.636,338.878 325.5,325C 325.989,323.862 326.322,322.695 326.5,321.5C 327.167,321.167 327.833,320.833 328.5,320.5C 329.391,319.89 330.391,319.557 331.5,319.5 Z M 446.5,348.5 C 446.5,348.833 446.5,349.167 446.5,349.5C 447.234,350.708 447.567,352.041 447.5,353.5C 450.964,364.353 453.964,375.353 456.5,386.5C 457.11,387.391 457.443,388.391 457.5,389.5C 462.323,407.124 466.989,424.791 471.5,442.5C 472.625,443.652 472.625,444.652 471.5,445.5C 459.861,448.823 448.194,452.156 436.5,455.5C 434.629,450.555 432.963,445.555 431.5,440.5C 431.567,439.041 431.234,437.708 430.5,436.5C 429.87,432.952 428.87,429.619 427.5,426.5C 427.149,423.097 426.482,419.763 425.5,416.5C 424.89,415.609 424.557,414.609 424.5,413.5C 424.443,412.391 424.11,411.391 423.5,410.5C 419.072,392.954 414.405,375.454 409.5,358C 412.397,355.641 415.73,354.141 419.5,353.5C 423.116,353.101 426.45,352.101 429.5,350.5C 431.292,350.634 432.958,350.301 434.5,349.5C 436.786,349.405 438.786,348.738 440.5,347.5C 442.144,347.714 443.644,347.38 445,346.5C 445.717,347.044 446.217,347.711 446.5,348.5 Z"/></g>
<g><path style="opacity:0.051" fill="#ffa2c1" d="M 218.5,307.5 C 216.632,306.737 214.965,305.737 213.5,304.5C 213.435,304.062 213.601,303.728 214,303.5C 216.118,304.283 217.618,305.616 218.5,307.5 Z"/></g>
<g><path style="opacity:0.184" fill="#ff6a8b" d="M 189.5,306.5 C 192.674,307.01 195.008,308.677 196.5,311.5C 193.883,310.214 191.55,308.547 189.5,306.5 Z"/></g>
<g><path style="opacity:0.588" fill="#ff6ab4" d="M 220.5,307.5 C 222.179,307.285 223.179,307.952 223.5,309.5C 222.29,309.068 221.29,308.401 220.5,307.5 Z"/></g>
<g><path style="opacity:0.984" fill="#ff408c" d="M 321.5,306.5 C 320.779,308.382 319.779,308.715 318.5,307.5C 319.391,306.89 320.391,306.557 321.5,306.5 Z"/></g>
<g><path style="opacity:0.847" fill="#ff737f" d="M 172.5,305.5 C 171.024,307.5 169.191,309.167 167,310.5C 166.601,310.272 166.435,309.938 166.5,309.5C 168.147,307.674 170.147,306.34 172.5,305.5 Z"/></g>
<g><path style="opacity:0.718" fill="#ff49b1" d="M 290.5,307.5 C 288.75,308.87 286.75,309.87 284.5,310.5C 285.784,308.386 287.784,307.386 290.5,307.5 Z"/></g>
<g><path style="opacity:0.212" fill="#ff80a7" d="M 340.5,306.5 C 346.1,309.099 349.434,313.432 350.5,319.5C 348.554,314.659 344.887,310.493 339.5,307C 339.728,306.601 340.062,306.435 340.5,306.5 Z"/></g>
<g><path style="opacity:0.922" fill="#ff7987" d="M 164.5,311.5 C 164.938,311.435 165.272,311.601 165.5,312C 163.959,313.579 162.792,315.413 162,317.5C 161.601,317.272 161.435,316.938 161.5,316.5C 161.75,314.326 162.75,312.659 164.5,311.5 Z"/></g>
<g><path style="opacity:0.294" fill="#ff27ac" d="M 328.5,320.5 C 327.833,320.833 327.167,321.167 326.5,321.5C 325.262,321.19 325.262,320.69 326.5,320C 327.437,319.308 328.103,319.475 328.5,320.5 Z"/></g>
<g><path style="opacity:0.173" fill="#ff4183" d="M 331.5,319.5 C 333.973,319.088 335.306,320.088 335.5,322.5C 334.128,321.488 332.795,320.488 331.5,319.5 Z"/></g>
<g><path style="opacity:0.984" fill="#ff4484" d="M 351.5,322.5 C 352.301,324.042 352.634,325.708 352.5,327.5C 351.661,326.359 350.994,325.026 350.5,323.5C 350.624,322.893 350.957,322.56 351.5,322.5 Z"/></g>
<g><path style="opacity:0.624" fill="#ff5ca2" d="M 448.5,331.5 C 450.099,331.232 451.432,331.566 452.5,332.5C 452.565,332.938 452.399,333.272 452,333.5C 450.698,332.915 449.531,332.249 448.5,331.5 Z"/></g>
<g><path style="opacity:0.576" fill="#ff4c62" d="M 72.5,332.5 C 74.861,332.674 77.1944,333.007 79.5,333.5C 77.0467,334.645 74.7134,334.312 72.5,332.5 Z"/></g>
<g><path style="opacity:0.969" fill="#ff7cd3" d="M 182.5,335.5 C 183.678,337.338 183.345,339.005 181.5,340.5C 181.629,338.784 181.962,337.117 182.5,335.5 Z"/></g>
<g><path style="opacity:0.992" fill="#ffa9ef" d="M 457.5,336.5 C 459.262,337.262 460.262,338.596 460.5,340.5C 458.738,339.738 457.738,338.404 457.5,336.5 Z"/></g>
<g><path style="opacity:0.075" fill="#ff76b8" d="M 355.5,336.5 C 356.038,338.117 356.371,339.784 356.5,341.5C 354.655,340.005 354.322,338.338 355.5,336.5 Z"/></g>
<g><path style="opacity:0.733" fill="#ff8491" d="M 311.5,335.5 C 313.216,336.574 314.216,338.241 314.5,340.5C 314.376,341.107 314.043,341.44 313.5,341.5C 312.833,339.5 312.167,337.5 311.5,335.5 Z"/></g>
<g><path style="opacity:0.996" fill="#ff6e91" d="M 412.5,339.5 C 408.03,340.676 403.864,342.676 400,345.5C 399.601,345.272 399.435,344.938 399.5,344.5C 403.085,341.175 407.419,339.508 412.5,339.5 Z"/></g>
<g><path style="opacity:0.6" fill="#ff5b9f" d="M 104.5,340.5 C 106.819,340.992 108.819,341.992 110.5,343.5C 107.911,343.539 105.911,342.539 104.5,340.5 Z"/></g>
<g><path style="opacity:0.969" fill="#ff6fbd" d="M 154.5,342.5 C 154.843,344.483 154.176,345.817 152.5,346.5C 152.989,345.005 153.655,343.671 154.5,342.5 Z"/></g>
<g><path style="opacity:0.353" fill="#ff6bc5" d="M 65.5,346.5 C 65.56,345.957 65.8933,345.624 66.5,345.5C 68.0255,345.994 69.3588,346.661 70.5,347.5C 68.7085,347.634 67.0418,347.301 65.5,346.5 Z"/></g>
<g><path style="opacity:0.627" fill="#ff5ab9" d="M 446.5,348.5 C 446.217,347.711 445.717,347.044 445,346.5C 443.644,347.38 442.144,347.714 440.5,347.5C 442.46,345.79 444.627,345.457 447,346.5C 447.692,347.437 447.525,348.103 446.5,348.5 Z"/></g>
<g><path style="opacity:0.565" fill="#ff47ca" d="M 80.5,350.5 C 79.209,350.737 78.209,350.404 77.5,349.5C 77.4346,349.062 77.6012,348.728 78,348.5C 78.9947,349.066 79.828,349.733 80.5,350.5 Z"/></g>
<g><path style="opacity:0.478" fill="#ff45ba" d="M 169.5,347.5 C 168.89,348.391 168.557,349.391 168.5,350.5C 167.115,349.053 167.448,348.053 169.5,347.5 Z"/></g>
<g><path style="opacity:0.973" fill="#ff858f" d="M 397.5,346.5 C 397.938,346.435 398.272,346.601 398.5,347C 397.023,348.812 395.69,350.645 394.5,352.5C 394.461,349.911 395.461,347.911 397.5,346.5 Z"/></g>
<g><path style="opacity:0.051" fill="#ff82c5" d="M 434.5,349.5 C 432.958,350.301 431.292,350.634 429.5,350.5C 430.641,349.661 431.974,348.994 433.5,348.5C 434.107,348.624 434.44,348.957 434.5,349.5 Z"/></g>
<g><path style="opacity:0.837" fill="#ff43ab" d="M 446.5,349.5 C 447.586,349.62 448.253,350.287 448.5,351.5C 448.457,352.416 448.124,353.083 447.5,353.5C 447.567,352.041 447.234,350.708 446.5,349.5 Z"/></g>
<g><path style="opacity:0.529" fill="#ff65a6" d="M 195.5,350.5 C 194.766,351.708 194.433,353.041 194.5,354.5C 193.876,354.083 193.543,353.416 193.5,352.5C 193.747,351.287 194.414,350.62 195.5,350.5 Z"/></g>
<g><path style="opacity:0.024" fill="#ff8495" d="M 429.5,350.5 C 426.45,352.101 423.116,353.101 419.5,353.5C 422.452,351.59 425.786,350.59 429.5,350.5 Z"/></g>
<g><path style="opacity:0.043" fill="#ff66c3" d="M 90.5,353.5 C 91.9473,352.115 92.9473,352.448 93.5,354.5C 92.609,353.89 91.609,353.557 90.5,353.5 Z"/></g>
<g><path style="opacity:0.459" fill="#ff7bbc" d="M 193.5,355.5 C 193.634,357.292 193.301,358.958 192.5,360.5C 191.957,360.44 191.624,360.107 191.5,359.5C 191.994,357.974 192.661,356.641 193.5,355.5 Z"/></g>
<g><path style="opacity:0.365" fill="#ff78ae" d="M 178.5,352.5 C 178.706,355.495 178.04,358.162 176.5,360.5C 176.565,357.572 177.232,354.905 178.5,352.5 Z"/></g>
<g><path style="opacity:1" fill="#ffcc55" d="M 85.5,361.5 C 87.6594,367.681 85.6594,371.847 79.5,374C 79.7284,374.399 80.0618,374.565 80.5,374.5C 80.44,375.043 80.1067,375.376 79.5,375.5C 77.9745,375.006 76.6412,374.339 75.5,373.5C 74.1535,371.463 72.8202,369.463 71.5,367.5C 71.75,359.533 75.75,356.7 83.5,359C 84.756,359.417 85.4226,360.25 85.5,361.5 Z"/></g>
<g><path style="opacity:0.98" fill="#ff30bd" d="M 432.5,358.5 C 431.122,359.234 429.622,359.901 428,360.5C 427.601,360.272 427.435,359.938 427.5,359.5C 428.919,358.549 430.585,358.216 432.5,358.5 Z"/></g>
<g><path style="opacity:1" fill="#ffcb5a" d="M 432.5,358.5 C 432.833,358.5 433.167,358.5 433.5,358.5C 434.436,359.974 435.77,360.974 437.5,361.5C 441.514,368.648 439.514,373.315 431.5,375.5C 430.583,374.873 429.583,374.539 428.5,374.5C 427.92,372.251 426.587,370.585 424.5,369.5C 424.401,366.763 424.735,364.096 425.5,361.5C 425.5,360.167 426.167,359.5 427.5,359.5C 427.435,359.938 427.601,360.272 428,360.5C 429.622,359.901 431.122,359.234 432.5,358.5 Z"/></g>
<g><path style="opacity:0.478" fill="#ff43b2" d="M 433.5,358.5 C 435.632,358.554 436.965,359.554 437.5,361.5C 435.77,360.974 434.436,359.974 433.5,358.5 Z"/></g>
<g><path style="opacity:0.129" fill="#ff6ead" d="M 345.5,356.5 C 347.326,358.147 348.66,360.147 349.5,362.5C 347.178,361.198 345.845,359.198 345.5,356.5 Z"/></g>
<g><path style="opacity:0.6" fill="#ff489a" d="M 117.5,362.5 C 122.833,362.5 128.167,362.5 133.5,362.5C 126.628,363.668 121.294,363.668 117.5,362.5 Z"/></g>
<g><path style="opacity:0.6" fill="#ff569f" d="M 377.5,362.5 C 382.833,362.5 388.167,362.5 393.5,362.5C 389.706,363.668 384.372,363.668 377.5,362.5 Z"/></g>
<g><path style="opacity:0.086" fill="#ff7793" d="M 356.5,369.5 C 354.251,368.92 352.585,367.587 351.5,365.5C 353.478,365.738 355.145,367.071 356.5,369.5 Z"/></g>
<g><path style="opacity:0.435" fill="#ff6671" d="M 425.5,361.5 C 424.735,364.096 424.401,366.763 424.5,369.5C 423.848,368.551 423.514,367.385 423.5,366C 423.307,363.992 423.974,362.492 425.5,361.5 Z"/></g>
<g><path style="opacity:0.827" fill="#ff8bb2" d="M 71.5,367.5 C 72.8202,369.463 74.1535,371.463 75.5,373.5C 72.7079,372.608 71.3746,370.608 71.5,367.5 Z"/></g>
<g><path style="opacity:0.91" fill="#ff74a3" d="M 190.5,368.5 C 191.473,370.139 192.806,371.473 194.5,372.5C 191.817,373.166 190.484,371.832 190.5,368.5 Z"/></g>
<g><path style="opacity:0.937" fill="#ff5e7c" d="M 362.5,373.5 C 360.326,373.25 358.659,372.25 357.5,370.5C 357.435,370.062 357.601,369.728 358,369.5C 359.667,370.733 361.167,372.067 362.5,373.5 Z"/></g>
<g><path style="opacity:0.365" fill="#ffa1be" d="M 424.5,369.5 C 426.587,370.585 427.92,372.251 428.5,374.5C 426.413,373.415 425.08,371.749 424.5,369.5 Z"/></g>
<g><path style="opacity:0.737" fill="#ff94c9" d="M 42.5,369.5 C 42.8294,372.228 42.1628,374.562 40.5,376.5C 40.7215,373.933 41.3882,371.599 42.5,369.5 Z"/></g>
<g><path style="opacity:0.604" fill="#ff71b9" d="M 98.5,370.5 C 98.9382,370.435 99.2716,370.601 99.5,371C 98.9341,371.995 98.2674,372.828 97.5,373.5C 97.2627,372.209 97.596,371.209 98.5,370.5 Z"/></g>
<g><path style="opacity:0.345" fill="#ff638b" d="M 335.5,369.5 C 335.829,372.228 335.163,374.562 333.5,376.5C 333.721,373.933 334.388,371.599 335.5,369.5 Z"/></g>
<g><path style="opacity:0.086" fill="#ff8986" d="M 85.5,361.5 C 88.4465,366.031 87.7799,370.198 83.5,374C 82.552,374.483 81.552,374.649 80.5,374.5C 80.0618,374.565 79.7284,374.399 79.5,374C 85.6594,371.847 87.6594,367.681 85.5,361.5 Z"/></g>
<g><path style="opacity:0.239" fill="#ff6da4" d="M 299.5,377.5 C 298.877,378.497 297.377,379.164 295,379.5C 294.235,379.43 293.735,379.097 293.5,378.5C 295.435,377.85 297.435,377.517 299.5,377.5 Z"/></g>
<g><path style="opacity:0.043" fill="#ff7ac7" d="M 332.5,378.5 C 332.672,379.492 332.338,380.158 331.5,380.5C 331.062,380.565 330.728,380.399 330.5,380C 331.126,379.25 331.626,378.416 332,377.5C 332.399,377.728 332.565,378.062 332.5,378.5 Z"/></g>
<g><path style="opacity:0.992" fill="#ff75c2" d="M 398.5,379.5 C 399.586,379.62 400.253,380.287 400.5,381.5C 401.372,383.054 401.372,384.388 400.5,385.5C 399.833,383.5 399.167,381.5 398.5,379.5 Z"/></g>
<g><path style="opacity:0.298" fill="#ff3dc4" d="M 223.5,380.5 C 224.791,380.263 225.791,380.596 226.5,381.5C 226.565,381.938 226.399,382.272 226,382.5C 225.005,381.934 224.172,381.267 223.5,380.5 Z"/></g>
<g><path style="opacity:0.298" fill="#ff3dc4" d="M 287.5,380.5 C 286.828,381.267 285.995,381.934 285,382.5C 284.601,382.272 284.435,381.938 284.5,381.5C 285.209,380.596 286.209,380.263 287.5,380.5 Z"/></g>
<g><path style="opacity:0.282" fill="#ff7693" d="M 96.5,375.5 C 97.0967,375.735 97.4301,376.235 97.5,377C 96.5317,381.404 95.1984,385.571 93.5,389.5C 94.1848,384.761 95.1848,380.095 96.5,375.5 Z"/></g>
<g><path style="opacity:0.984" fill="#ff6689" d="M 234.5,384.5 C 238.167,386.167 240.833,388.833 242.5,392.5C 239.5,390.167 236.833,387.5 234.5,384.5 Z"/></g>
<g><path style="opacity:0.992" fill="#ff76cd" d="M 456.5,386.5 C 458.552,387.053 458.885,388.053 457.5,389.5C 457.443,388.391 457.11,387.391 456.5,386.5 Z"/></g>
<g><path style="opacity:0.804" fill="#ff77b9" d="M 54.5,384.5 C 54.5674,385.959 54.2341,387.292 53.5,388.5C 52.5291,387.038 52.8624,385.705 54.5,384.5 Z"/></g>
<g><path style="opacity:0.996" fill="#ff8397" d="M 276.5,384.5 C 274.49,387.562 272.157,389.562 269.5,390.5C 271.239,387.757 273.573,385.757 276.5,384.5 Z"/></g>
<g><path style="opacity:0.996" fill="#ff7dc3" d="M 474.5,391.5 C 475.301,393.042 475.634,394.708 475.5,396.5C 474.661,395.359 473.994,394.026 473.5,392.5C 473.624,391.893 473.957,391.56 474.5,391.5 Z"/></g>
<g><path style="opacity:0.094" fill="#ff63ac" d="M 108.5,393.5 C 108.443,394.609 108.11,395.609 107.5,396.5C 106.285,395.221 106.618,394.221 108.5,393.5 Z"/></g>
<g><path style="opacity:0.894" fill="#ff54a2" d="M 37.5,388.5 C 37.7062,391.495 37.0395,394.162 35.5,396.5C 35.5651,393.572 36.2318,390.905 37.5,388.5 Z"/></g>
<g><path style="opacity:0.11" fill="#ff769e" d="M 286.5,397.5 C 284.225,398.111 282.559,399.445 281.5,401.5C 281.627,397.67 283.294,396.337 286.5,397.5 Z"/></g>
<g><path style="opacity:0.478" fill="#ff73a2" d="M 107.5,397.5 C 106.833,400.167 106.167,402.833 105.5,405.5C 104.903,405.265 104.57,404.765 104.5,404C 104.838,401.391 105.838,399.224 107.5,397.5 Z"/></g>
<g><path style="opacity:0.984" fill="#ff66a3" d="M 317.5,399.5 C 315.287,401.312 312.953,401.645 310.5,400.5C 312.806,400.007 315.139,399.674 317.5,399.5 Z"/></g>
<g><path style="opacity:0.984" fill="#ff468b" d="M 33.5,402.5 C 34.7152,403.779 34.3818,404.779 32.5,405.5C 32.5569,404.391 32.8902,403.391 33.5,402.5 Z"/></g>
<g><path style="opacity:0.992" fill="#ff78ca" d="M 204.5,402.5 C 206.099,402.232 207.432,402.566 208.5,403.5C 208.565,403.938 208.399,404.272 208,404.5C 206.698,403.915 205.531,403.249 204.5,402.5 Z"/></g>
<g><path style="opacity:0.996" fill="#ff88aa" d="M 305.5,402.5 C 303.562,404.163 301.228,404.829 298.5,404.5C 300.599,403.388 302.933,402.721 305.5,402.5 Z"/></g>
<g><path style="opacity:0.996" fill="#ff92b1" d="M 321.5,400.5 C 323.997,401.129 325.33,402.796 325.5,405.5C 323.937,404.055 322.604,402.389 321.5,400.5 Z"/></g>
<g><path style="opacity:0.537" fill="#ff6e92" d="M 189.5,400.5 C 189.938,400.435 190.272,400.601 190.5,401C 187.783,402.259 186.45,404.426 186.5,407.5C 186.728,409.207 187.062,410.874 187.5,412.5C 186.883,412.389 186.383,412.056 186,411.5C 185.333,408.833 185.333,406.167 186,403.5C 186.422,401.574 187.589,400.574 189.5,400.5 Z"/></g>
<g><path style="opacity:0.918" fill="#ff75a9" d="M 212.5,404.5 C 215.152,404.41 217.485,405.076 219.5,406.5C 216.848,406.59 214.515,405.924 212.5,404.5 Z"/></g>
<g><path style="opacity:0.569" fill="#ff73b5" d="M 406.5,406.5 C 407.249,407.531 407.915,408.698 408.5,410C 408.272,410.399 407.938,410.565 407.5,410.5C 406.566,409.432 406.232,408.099 406.5,406.5 Z"/></g>
<g><path style="opacity:0.541" fill="#ff75c3" d="M 243.5,409.5 C 243.025,411.784 242.025,413.784 240.5,415.5C 239.475,415.103 239.308,414.437 240,413.5C 241.252,411.999 242.252,410.332 243,408.5C 243.399,408.728 243.565,409.062 243.5,409.5 Z"/></g>
<g><path style="opacity:0.541" fill="#ff64a1" d="M 267.5,408.5 C 268.81,410.435 270.143,412.435 271.5,414.5C 271.376,415.107 271.043,415.44 270.5,415.5C 268.688,413.539 267.688,411.206 267.5,408.5 Z"/></g>
<g><path style="opacity:0.984" fill="#ff468b" d="M 423.5,410.5 C 424.11,411.391 424.443,412.391 424.5,413.5C 422.618,412.779 422.285,411.779 423.5,410.5 Z"/></g>
<g><path style="opacity:0.051" fill="#ff81af" d="M 324.5,411.5 C 323.599,413.727 321.933,414.727 319.5,414.5C 321.103,413.404 322.603,412.07 324,410.5C 324.399,410.728 324.565,411.062 324.5,411.5 Z"/></g>
<g><path style="opacity:0.255" fill="#ff8d9e" d="M 31.5,409.5 C 32.0431,409.56 32.3764,409.893 32.5,410.5C 31.609,414.444 30.2757,418.111 28.5,421.5C 29.1916,417.4 30.1916,413.4 31.5,409.5 Z"/></g>
<g><path style="opacity:0.459" fill="#ff71bc" d="M 102.5,414.5 C 102.634,416.292 102.301,417.958 101.5,419.5C 100.957,419.44 100.624,419.107 100.5,418.5C 100.994,416.974 101.661,415.641 102.5,414.5 Z"/></g>
<g><path style="opacity:0.271" fill="#ff38b0" d="M 302.5,419.5 C 301.292,420.234 299.959,420.567 298.5,420.5C 299.705,418.862 301.038,418.529 302.5,419.5 Z"/></g>
<g><path style="opacity:0.447" fill="#ff6e94" d="M 425.5,416.5 C 426.482,419.763 427.149,423.097 427.5,426.5C 426.215,424.475 425.215,421.642 424.5,418C 424.57,417.235 424.903,416.735 425.5,416.5 Z"/></g>
<g><path style="opacity:0.941" fill="#ff81c7" d="M 240.5,419.5 C 241.404,420.209 241.737,421.209 241.5,422.5C 241.565,422.938 241.399,423.272 241,423.5C 240.691,422.234 240.191,421.067 239.5,420C 239.728,419.601 240.062,419.435 240.5,419.5 Z"/></g>
<g><path style="opacity:0.522" fill="#ff829a" d="M 193.5,425.5 C 196.632,426.36 199.632,427.36 202.5,428.5C 202.565,428.938 202.399,429.272 202,429.5C 199.932,428.606 197.765,427.94 195.5,427.5C 194.287,427.253 193.62,426.586 193.5,425.5 Z"/></g>
<g><path style="opacity:0.604" fill="#ff6cb2" d="M 83.5,426.5 C 83.9382,426.435 84.2716,426.601 84.5,427C 83.9152,428.302 83.2485,429.469 82.5,430.5C 82.2322,428.901 82.5655,427.568 83.5,426.5 Z"/></g>
<g><path style="opacity:0.675" fill="#ff57b6" d="M 411.5,426.5 C 413.345,427.995 413.678,429.662 412.5,431.5C 411.962,429.883 411.629,428.216 411.5,426.5 Z"/></g>
<g><path style="opacity:0.537" fill="#ff60b4" d="M 26.5,429.5 C 27.154,430.185 27.154,431.185 26.5,432.5C 26.2528,433.713 25.5862,434.38 24.5,434.5C 25.0241,432.694 25.6908,431.028 26.5,429.5 Z"/></g>
<g><path style="opacity:0.804" fill="#ff79cd" d="M 485.5,431.5 C 485.557,432.609 485.89,433.609 486.5,434.5C 484.448,433.947 484.115,432.947 485.5,431.5 Z"/></g>
<g><path style="opacity:0.482" fill="#ff607d" d="M 269.5,433.5 C 271.293,435.426 272.293,437.759 272.5,440.5C 270.707,438.574 269.707,436.241 269.5,433.5 Z"/></g>
<g><path style="opacity:0.992" fill="#ff78ca" d="M 413.5,432.5 C 414.249,433.531 414.915,434.698 415.5,436C 415.272,436.399 414.938,436.565 414.5,436.5C 413.566,435.432 413.232,434.099 413.5,432.5 Z"/></g>
<g><path style="opacity:0.796" fill="#ff8dad" d="M 178.5,433.5 C 179.933,434.833 181.267,436.333 182.5,438C 182.272,438.399 181.938,438.565 181.5,438.5C 179.75,437.341 178.75,435.674 178.5,433.5 Z"/></g>
<g><path style="opacity:0.282" fill="#ff717f" d="M 81.5,431.5 C 82.0967,431.735 82.4301,432.235 82.5,433C 82.1625,435.609 81.1625,437.776 79.5,439.5C 80.1667,436.833 80.8333,434.167 81.5,431.5 Z"/></g>
<g><path style="opacity:0.051" fill="#ffa1b6" d="M 96.5,437.5 C 95.7249,439.612 95.7249,441.612 96.5,443.5C 96.5654,443.938 96.3988,444.272 96,444.5C 94.046,441.994 94.2126,439.66 96.5,437.5 Z"/></g>
<g><path style="opacity:0.541" fill="#ff6ac8" d="M 430.5,436.5 C 431.234,437.708 431.567,439.041 431.5,440.5C 429.862,439.295 429.529,437.962 430.5,436.5 Z"/></g>
<g><path style="opacity:0.29" fill="#ff7ea8" d="M 241.5,434.5 C 239.669,440.335 236.002,444.669 230.5,447.5C 229.526,449.743 229.192,452.076 229.5,454.5C 228.2,451.976 228.2,449.309 229.5,446.5C 234.549,443.451 238.549,439.451 241.5,434.5 Z"/></g>
<g><path style="opacity:0.122" fill="#ff88a5" d="M 281.5,450.5 C 281.719,449.325 281.386,448.325 280.5,447.5C 278.214,446.867 276.548,445.534 275.5,443.5C 275.435,443.062 275.601,442.728 276,442.5C 277.413,444.414 279.247,445.747 281.5,446.5C 282.782,447.958 282.782,449.292 281.5,450.5 Z"/></g>
<g><path style="opacity:0.816" fill="#ff71b0" d="M 415.5,442.5 C 414.461,444.531 412.795,445.864 410.5,446.5C 411.579,444.457 413.246,443.124 415.5,442.5 Z"/></g>
<g><path style="opacity:0.776" fill="#ff72c7" d="M 303.5,446.5 C 301.784,446.629 300.117,446.962 298.5,447.5C 299.879,445.403 301.545,445.07 303.5,446.5 Z"/></g>
<g><path style="opacity:0.918" fill="#ff61cc" d="M 471.5,442.5 C 472.586,442.62 473.253,443.287 473.5,444.5C 473.139,446.418 472.472,446.751 471.5,445.5C 472.625,444.652 472.625,443.652 471.5,442.5 Z"/></g>
<g><path style="opacity:0.894" fill="#ff6bc6" d="M 410.5,446.5 C 409.625,448.806 408.292,449.473 406.5,448.5C 407.605,447.4 408.938,446.733 410.5,446.5 Z"/></g>
<g><path style="opacity:0.655" fill="#ff56b1" d="M 51.5,449.5 C 54.1522,449.41 56.4855,450.076 58.5,451.5C 55.8478,451.59 53.5145,450.924 51.5,449.5 Z"/></g>
<g><path style="opacity:0.235" fill="#ff718c" d="M 334.5,449.5 C 338.956,452.072 340.29,455.739 338.5,460.5C 338.071,459.047 337.904,457.381 338,455.5C 336.579,453.595 335.412,451.595 334.5,449.5 Z"/></g>
<g><path style="opacity:0.922" fill="#ff7b87" d="M 179.5,449.5 C 176.933,450.717 174.6,452.384 172.5,454.5C 173.43,450.907 175.763,449.241 179.5,449.5 Z"/></g>
<g><path style="opacity:0.224" fill="#ffa0d2" d="M 319.5,452.5 C 316.146,454.258 312.479,455.258 308.5,455.5C 311.854,453.742 315.521,452.742 319.5,452.5 Z"/></g>
<g><path style="opacity:0.176" fill="#ff53a1" d="M 110.5,453.5 C 112.027,453.427 113.027,454.094 113.5,455.5C 111.378,455.374 110.378,454.707 110.5,453.5 Z"/></g>
<g><path style="opacity:0.361" fill="#ff4ab2" d="M 308.5,455.5 C 306.598,457.151 304.598,457.484 302.5,456.5C 304.435,455.85 306.435,455.517 308.5,455.5 Z"/></g>
<g><path style="opacity:0.255" fill="#ff77af" d="M 485.5,454.5 C 484.5,456.167 483.167,457.5 481.5,458.5C 482.031,456.456 483.198,454.789 485,453.5C 485.399,453.728 485.565,454.062 485.5,454.5 Z"/></g>
<g><path style="opacity:0.631" fill="#ff478c" d="M 116.5,457.5 C 118.284,457.893 119.95,458.559 121.5,459.5C 119.49,460.349 117.823,459.682 116.5,457.5 Z"/></g>
<g><path style="opacity:0.729" fill="#ff5cb2" d="M 28.5,457.5 C 31.1892,457.946 32.8559,458.946 33.5,460.5C 31.326,460.25 29.6594,459.25 28.5,457.5 Z"/></g>
<g><path style="opacity:0.573" fill="#ff95ac" d="M 282.5,457.5 C 284.008,459.181 285.008,461.181 285.5,463.5C 283.461,462.089 282.461,460.089 282.5,457.5 Z"/></g>
<g><path style="opacity:0.675" fill="#ff52ac" d="M 469.5,462.5 C 467.786,463.738 465.786,464.405 463.5,464.5C 465.102,462.926 467.102,462.259 469.5,462.5 Z"/></g>
<g><path style="opacity:0.255" fill="#ff7b8d" d="M 411.5,464.5 C 409.853,466.326 407.853,467.66 405.5,468.5C 405.062,468.565 404.728,468.399 404.5,468C 406.754,466.623 408.92,465.123 411,463.5C 411.399,463.728 411.565,464.062 411.5,464.5 Z"/></g>
<g><path style="opacity:0.988" fill="#ff7f74" d="M 98.5,463.5 C 102.433,464.781 105.433,467.114 107.5,470.5C 104.19,468.518 101.19,466.185 98.5,463.5 Z"/></g>
<g><path style="opacity:0.737" fill="#ff96d0" d="M 188.5,467.5 C 191.228,467.171 193.562,467.837 195.5,469.5C 192.933,469.279 190.599,468.612 188.5,467.5 Z"/></g>
<g><path style="opacity:0.776" fill="#ff67ad" d="M 450.5,468.5 C 448.5,468.833 446.5,469.167 444.5,469.5C 446.32,467.539 448.32,467.206 450.5,468.5 Z"/></g>
<g><path style="opacity:0.255" fill="#ff80a1" d="M 286.5,465.5 C 289.116,466.48 291.449,467.98 293.5,470C 292.906,470.464 292.239,470.631 291.5,470.5C 289.64,469.061 287.973,467.395 286.5,465.5 Z"/></g>
<g><path style="opacity:0.447" fill="#ff97aa" d="M 400.5,471.5 C 397.017,474.237 393.017,475.903 388.5,476.5C 391.738,474.591 395.738,472.925 400.5,471.5 Z"/></g>
<g><path style="opacity:0.992" fill="#ff7ccd" d="M 336.5,474.5 C 335.828,475.267 334.995,475.934 334,476.5C 333.601,476.272 333.435,475.938 333.5,475.5C 334.209,474.596 335.209,474.263 336.5,474.5 Z"/></g>
<g><path style="opacity:0.353" fill="#ff67c0" d="M 125.5,477.5 C 125.56,476.957 125.893,476.624 126.5,476.5C 128.026,476.994 129.359,477.661 130.5,478.5C 128.708,478.634 127.042,478.301 125.5,477.5 Z"/></g>
<g><path style="opacity:0.918" fill="#ff73c3" d="M 329.5,476.5 C 328.359,477.339 327.026,478.006 325.5,478.5C 324.893,478.376 324.56,478.043 324.5,477.5C 326.042,476.699 327.708,476.366 329.5,476.5 Z"/></g>
<g><path style="opacity:0.075" fill="#ff8ae1" d="M 214.5,489.5 C 213.738,491.262 212.404,492.262 210.5,492.5C 211.538,490.372 212.871,489.372 214.5,489.5 Z"/></g>
<g><path style="opacity:0.753" fill="#ff75a2" d="M 296.5,489.5 C 299.37,490.433 301.704,492.1 303.5,494.5C 300.63,493.567 298.296,491.9 296.5,489.5 Z"/></g>
</svg>
