<?xml version="1.0" encoding="UTF-8"?>
<!DOCTYPE svg PUBLIC "-//W3C//DTD SVG 1.1//EN" "http://www.w3.org/Graphics/SVG/1.1/DTD/svg11.dtd">
<svg xmlns="http://www.w3.org/2000/svg" version="1.1" width="512px" height="512px" style="shape-rendering:geometricPrecision; text-rendering:geometricPrecision; image-rendering:optimizeQuality; fill-rule:evenodd; clip-rule:evenodd" xmlns:xlink="http://www.w3.org/1999/xlink">
<g><path style="opacity:0.993" fill="#00dc7f" d="M 248.5,-0.5 C 251.167,-0.5 253.833,-0.5 256.5,-0.5C 256.5,42.1667 256.5,84.8333 256.5,127.5C 253.287,127.19 250.287,127.523 247.5,128.5C 197.024,134.143 160.857,159.809 139,205.5C 122.932,248.179 126.932,288.845 151,327.5C 174.853,360.183 207.02,378.516 247.5,382.5C 250.287,383.477 253.287,383.81 256.5,383.5C 256.5,426.167 256.5,468.833 256.5,511.5C 253.5,511.5 250.5,511.5 247.5,511.5C 117.607,467.191 48.4402,376.191 40,238.5C 38.0543,196.492 38.0543,154.492 40,112.5C 45.3177,90.516 58.8177,76.3494 80.5,70C 110.39,68.222 139.39,62.222 167.5,52C 194.152,40.3357 217.819,24.3357 238.5,4C 241.815,2.1702 245.149,0.670196 248.5,-0.5 Z"/></g>
<g><path style="opacity:1" fill="#00a861" d="M 256.5,-0.5 C 259.167,-0.5 261.833,-0.5 264.5,-0.5C 275.291,4.09287 284.624,10.9262 292.5,20C 318.538,41.5171 348.205,55.8504 381.5,63C 398.412,66.0521 415.412,68.3855 432.5,70C 454.182,76.3494 467.682,90.516 473,112.5C 474.946,154.158 474.946,195.825 473,237.5C 464.857,375.602 395.69,466.935 265.5,511.5C 262.5,511.5 259.5,511.5 256.5,511.5C 256.5,468.833 256.5,426.167 256.5,383.5C 253.287,383.81 250.287,383.477 247.5,382.5C 250.5,382.5 253.5,382.5 256.5,382.5C 311.31,380.523 350.476,354.856 374,305.5C 394.469,249.887 383.636,201.387 341.5,160C 317.187,138.851 288.853,128.351 256.5,128.5C 253.5,128.5 250.5,128.5 247.5,128.5C 250.287,127.523 253.287,127.19 256.5,127.5C 256.5,84.8333 256.5,42.1667 256.5,-0.5 Z"/></g>
<g><path style="opacity:1" fill="#fefefe" d="M 247.5,128.5 C 250.5,128.5 253.5,128.5 256.5,128.5C 256.5,169.5 256.5,210.5 256.5,251.5C 256.5,252.167 256.5,252.833 256.5,253.5C 249.159,260.674 241.659,267.674 234,274.5C 227.543,269.045 221.376,263.212 215.5,257C 205.663,252.502 198.163,255.002 193,264.5C 192.063,269.403 192.73,274.07 195,278.5C 205.896,290.065 217.396,300.899 229.5,311C 234.072,311.887 238.405,311.22 242.5,309C 246.702,304.63 251.036,300.463 255.5,296.5C 256.498,324.995 256.831,353.662 256.5,382.5C 253.5,382.5 250.5,382.5 247.5,382.5C 207.02,378.516 174.853,360.183 151,327.5C 126.932,288.845 122.932,248.179 139,205.5C 160.857,159.809 197.024,134.143 247.5,128.5 Z"/></g>
<g><path style="opacity:1" fill="#e0eaef" d="M 256.5,128.5 C 288.853,128.351 317.187,138.851 341.5,160C 383.636,201.387 394.469,249.887 374,305.5C 350.476,354.856 311.31,380.523 256.5,382.5C 256.831,353.662 256.498,324.995 255.5,296.5C 255.833,295.833 256.167,295.167 256.5,294.5C 276.465,275.035 296.299,255.368 316,235.5C 321.684,219.684 316.184,211.85 299.5,212C 297.004,213.08 294.67,214.414 292.5,216C 280.632,228.035 268.632,239.869 256.5,251.5C 256.5,210.5 256.5,169.5 256.5,128.5 Z"/></g>
<g><path style="opacity:1" fill="#6fa4a9" d="M 256.5,294.5 C 256.5,280.833 256.5,267.167 256.5,253.5C 256.5,252.833 256.5,252.167 256.5,251.5C 268.632,239.869 280.632,228.035 292.5,216C 294.67,214.414 297.004,213.08 299.5,212C 316.184,211.85 321.684,219.684 316,235.5C 296.299,255.368 276.465,275.035 256.5,294.5 Z"/></g>
<g><path style="opacity:1" fill="#b3d1d7" d="M 256.5,253.5 C 256.5,267.167 256.5,280.833 256.5,294.5C 256.167,295.167 255.833,295.833 255.5,296.5C 251.036,300.463 246.702,304.63 242.5,309C 238.405,311.22 234.072,311.887 229.5,311C 217.396,300.899 205.896,290.065 195,278.5C 192.73,274.07 192.063,269.403 193,264.5C 198.163,255.002 205.663,252.502 215.5,257C 221.376,263.212 227.543,269.045 234,274.5C 241.659,267.674 249.159,260.674 256.5,253.5 Z"/></g>
</svg>
